<?xml version="1.0" encoding="UTF-8"?>
<svg width="4096px" height="1024px" viewBox="0 0 4096 1024" version="1.1" xmlns="http://www.w3.org/2000/svg" xmlns:xlink="http://www.w3.org/1999/xlink">
    <!-- Generator: Sketch 61.2 (89653) - https://sketch.com -->
    <title>Black Text_SVG</title>
    <desc>Created with Sketch.</desc>
    <g id="Black-Text" stroke="none" stroke-width="1" fill="none" fill-rule="evenodd">
        <g id="Limitless_Black_Black" transform="translate(885.000000, 512.000000)">
            <text id="li-less" font-family="Avenir-Black, Avenir" font-size="270" font-weight="700">
                <tspan x="54.9" y="270" fill="#000000">li</tspan>
                <tspan x="195.3" y="270" fill="#FFFFFF">     </tspan>
                <tspan x="594.9" y="270" fill="#000000">less</tspan>
            </text>
            <g id="MIT-Logo" transform="translate(224.000000, 83.000000)" fill="#000000" fill-rule="nonzero">
                <polygon id="Path" points="262 40 363 40 363 0 262 0"></polygon>
                <polygon id="Path" points="66 131 106 131 106 0 66 0"></polygon>
                <polygon id="Path" points="131 192 171 192 171 1 131 1"></polygon>
                <polygon id="Path" points="0 192 40 192 40 1 0 1"></polygon>
                <polygon id="Path" points="262 192 302 192 302 66 262 66"></polygon>
                <polygon id="Path" points="196 40 236 40 236 0 196 0"></polygon>
                <polygon id="Path" points="198 191 238 191 238 65 198 65"></polygon>
            </g>
            <g id="infinite-sign" transform="translate(952.000000, 0.000000)" fill="#000000" fill-rule="nonzero">
                <path d="M45.4070762,91.4572864 C57.5359722,91.4572864 68.9382909,86.7007159 77.5145109,78.0636966 L99.4976545,55.9247083 L121.480798,78.0636966 C130.057018,86.7007159 141.459671,91.4572864 153.588233,91.4572864 C165.717129,91.4572864 177.119448,86.7003793 185.695668,78.0636966 C194.271888,69.4266773 198.994975,57.9431878 198.994975,45.7286432 C198.994975,33.513762 194.271888,22.0306091 185.695668,13.3935898 C177.119448,4.75657053 165.717129,0 153.588233,0 C141.459671,0 130.057018,4.75657053 121.480798,13.3935898 L99.4976545,35.5329148 L77.5145109,13.3939264 C68.9382909,4.75690712 57.535638,0 45.4070762,0 C33.2781802,0 21.8758615,4.75690712 13.2996415,13.3939264 C4.72308723,22.0306091 0,33.5140986 0,45.7289798 C0,57.9431878 4.72308723,69.4266773 13.2993073,78.0636966 C21.8758615,86.7007159 33.2781802,91.4572864 45.4070762,91.4572864 Z M131.605089,23.5893183 C137.476864,17.6759169 145.284396,14.4188172 153.588233,14.4188172 C161.892738,14.4188172 169.699602,17.6755804 175.571377,23.5893183 C181.443485,29.5027196 184.677657,37.3656013 184.677657,45.7286432 C184.677657,54.0916851 181.443485,61.9538937 175.571377,67.8676316 C169.699602,73.7810329 161.892404,77.0381326 153.588233,77.0381326 C145.284062,77.0381326 137.476864,73.7810329 131.605089,67.8676316 L109.621611,45.7286432 L131.605089,23.5893183 Z M23.4235983,23.5893183 C29.295373,17.6759169 37.1025707,14.4188172 45.406742,14.4188172 C53.7109133,14.4188172 61.5181109,17.6755804 67.3898856,23.5893183 L89.3733635,45.7286432 L67.3895514,67.8679682 C61.5177767,73.7813695 53.710579,77.0381326 45.4064078,77.0381326 C37.1022365,77.0381326 29.2947046,73.7813695 23.4229299,67.8679682 C17.5511553,61.9542302 14.3173177,54.0916851 14.3173177,45.7289798 C14.3173177,37.3656013 17.5514895,29.5030562 23.4235983,23.5893183 Z" id="Shape"></path>
                <path d="M154.272857,91.4572864 C142.058563,91.4572864 130.575303,86.7007014 121.938714,78.0637972 L100,56.1242833 L78.0616214,78.0637972 C69.4250322,86.7010367 57.9417722,91.4572864 45.7274788,91.4572864 C33.5131854,91.4572864 22.0302608,86.7007014 13.3933362,78.0637972 C4.75641163,69.4265577 0,57.9432143 0,45.7288109 C0,33.5140721 4.75641163,22.0303934 13.3930009,13.3934892 C22.0299254,4.75658507 33.5131854,0 45.7271435,0 C57.9414368,0 69.4243615,4.75658507 78.0612861,13.3934892 L100,35.3330031 L121.938714,13.3934892 C130.575638,4.75658507 142.058563,0 154.272857,0 C166.48715,0 177.97041,4.75658507 186.606999,13.3934892 C195.243588,22.0303934 200,33.5140721 200,45.7288109 C200,57.9435497 195.243253,69.4272284 186.606999,78.0641326 C177.970075,86.7010367 166.486815,91.4572864 154.272857,91.4572864 Z M100,55.6501003 L122.175797,77.8267057 C130.749007,86.400229 142.148098,91.1219378 154.272857,91.1219378 C166.39728,91.1219378 177.796035,86.400229 186.369916,77.8267057 C194.943127,69.2531825 199.664664,57.8536762 199.664664,45.7284755 C199.664664,33.6032749 194.943127,22.204104 186.369916,13.6302454 C177.796706,5.05638675 166.397615,0.335013289 154.272857,0.335013289 C142.148433,0.335013289 130.749678,5.0567221 122.175797,13.6302454 L100,35.8068508 L77.8242032,13.6302454 C69.2509926,5.0567221 57.851902,0.335013289 45.7271435,0.335013289 C33.6027202,0.335013289 22.2036297,5.0567221 13.6300837,13.6302454 C5.05687306,22.204104 0.335336409,33.6036102 0.335336409,45.7288109 C0.335336409,57.8533409 5.05687306,69.2525118 13.6300837,77.8267057 C22.2036297,86.400229 33.6027202,91.1219378 45.7271435,91.1219378 C57.8515667,91.1219378 69.2506573,86.400229 77.8242032,77.8267057 L100,55.6501003 Z M154.272857,77.0909508 C145.896153,77.0909508 138.020442,73.8283439 132.09706,67.9047456 L109.920928,45.7281402 L132.09706,23.5515348 C138.020442,17.6279365 145.895818,14.3656649 154.272857,14.3656649 C162.649895,14.3656649 170.525271,17.6279365 176.448653,23.5515348 C182.372371,29.4751331 185.634859,37.3507959 185.634859,45.7281402 C185.634859,54.1048138 182.372371,61.9808119 176.448653,67.9047456 C170.525271,73.8286793 162.64956,77.0909508 154.272857,77.0909508 Z M110.395093,45.7284755 L132.334143,67.6679894 C138.194482,73.5285422 145.985688,76.7559375 154.272857,76.7559375 C162.560025,76.7559375 170.351231,73.5285422 176.21157,67.6679894 C182.07191,61.8071013 185.299522,54.0159464 185.299522,45.7284755 C185.299522,37.4406693 182.07191,29.6491791 176.21157,23.7889616 C170.351231,17.9287442 162.560025,14.7013489 154.272857,14.7013489 C145.985688,14.7013489 138.194482,17.9287442 132.334143,23.7889616 L110.395093,45.7284755 Z M45.7271435,77.0909508 C37.3501046,77.0909508 29.4743937,73.8286793 23.5513467,67.9050809 C17.6282997,61.9814826 14.3661471,54.1058199 14.3661471,45.7284755 C14.3661471,37.3507959 17.6282997,29.4747978 23.551682,23.5515348 C29.4750644,17.6279365 37.35044,14.3656649 45.7274788,14.3656649 C54.1045177,14.3656649 61.9798932,17.6279365 67.9032756,23.5515348 L90.0794077,45.7281402 L67.9032756,67.9050809 C61.9798932,73.8290146 54.1041823,77.0909508 45.7271435,77.0909508 Z M45.7274788,14.7013489 C37.4403101,14.7013489 29.6487686,17.9287442 23.7887649,23.7889616 C17.9287611,29.6491791 14.7014835,37.4406693 14.7014835,45.7288109 C14.7014835,54.0162818 17.9287611,61.807772 23.7884296,67.6683248 C29.6484333,73.5285422 37.4396394,76.7559375 45.7271435,76.7559375 C54.0146475,76.7559375 61.8058536,73.5285422 67.6658574,67.6683248 L89.6049066,45.7284755 L67.6658574,23.7889616 C61.806189,17.9287442 54.0146475,14.7013489 45.7274788,14.7013489 Z" id="Shape"></path>
            </g>
        </g>
        <g id="Limitless_Black_Heavy" transform="translate(2059.000000, 153.000000)">
            <text id="li-less" font-family="Avenir-Heavy, Avenir" font-size="270" font-weight="600">
                <tspan x="59.895" y="270" fill="#000000">li</tspan>
                <tspan x="200.565" y="270" fill="#FFFFFF">     </tspan>
                <tspan x="600.165" y="270" fill="#000000">less</tspan>
            </text>
            <g id="MIT-Logo" transform="translate(224.000000, 83.000000)" fill="#000000" fill-rule="nonzero">
                <polygon id="Path" points="262 40 363 40 363 0 262 0"></polygon>
                <polygon id="Path" points="66 131 106 131 106 0 66 0"></polygon>
                <polygon id="Path" points="131 192 171 192 171 1 131 1"></polygon>
                <polygon id="Path" points="0 192 40 192 40 1 0 1"></polygon>
                <polygon id="Path" points="262 192 302 192 302 66 262 66"></polygon>
                <polygon id="Path" points="196 40 236 40 236 0 196 0"></polygon>
                <polygon id="Path" points="198 191 238 191 238 65 198 65"></polygon>
            </g>
            <g id="infinite-sign" transform="translate(952.000000, 0.000000)" fill="#000000" fill-rule="nonzero">
                <path d="M45.4070762,91.4572864 C57.5359722,91.4572864 68.9382909,86.7007159 77.5145109,78.0636966 L99.4976545,55.9247083 L121.480798,78.0636966 C130.057018,86.7007159 141.459671,91.4572864 153.588233,91.4572864 C165.717129,91.4572864 177.119448,86.7003793 185.695668,78.0636966 C194.271888,69.4266773 198.994975,57.9431878 198.994975,45.7286432 C198.994975,33.513762 194.271888,22.0306091 185.695668,13.3935898 C177.119448,4.75657053 165.717129,0 153.588233,0 C141.459671,0 130.057018,4.75657053 121.480798,13.3935898 L99.4976545,35.5329148 L77.5145109,13.3939264 C68.9382909,4.75690712 57.535638,0 45.4070762,0 C33.2781802,0 21.8758615,4.75690712 13.2996415,13.3939264 C4.72308723,22.0306091 0,33.5140986 0,45.7289798 C0,57.9431878 4.72308723,69.4266773 13.2993073,78.0636966 C21.8758615,86.7007159 33.2781802,91.4572864 45.4070762,91.4572864 Z M131.605089,23.5893183 C137.476864,17.6759169 145.284396,14.4188172 153.588233,14.4188172 C161.892738,14.4188172 169.699602,17.6755804 175.571377,23.5893183 C181.443485,29.5027196 184.677657,37.3656013 184.677657,45.7286432 C184.677657,54.0916851 181.443485,61.9538937 175.571377,67.8676316 C169.699602,73.7810329 161.892404,77.0381326 153.588233,77.0381326 C145.284062,77.0381326 137.476864,73.7810329 131.605089,67.8676316 L109.621611,45.7286432 L131.605089,23.5893183 Z M23.4235983,23.5893183 C29.295373,17.6759169 37.1025707,14.4188172 45.406742,14.4188172 C53.7109133,14.4188172 61.5181109,17.6755804 67.3898856,23.5893183 L89.3733635,45.7286432 L67.3895514,67.8679682 C61.5177767,73.7813695 53.710579,77.0381326 45.4064078,77.0381326 C37.1022365,77.0381326 29.2947046,73.7813695 23.4229299,67.8679682 C17.5511553,61.9542302 14.3173177,54.0916851 14.3173177,45.7289798 C14.3173177,37.3656013 17.5514895,29.5030562 23.4235983,23.5893183 Z" id="Shape"></path>
                <path d="M154.272857,91.4572864 C142.058563,91.4572864 130.575303,86.7007014 121.938714,78.0637972 L100,56.1242833 L78.0616214,78.0637972 C69.4250322,86.7010367 57.9417722,91.4572864 45.7274788,91.4572864 C33.5131854,91.4572864 22.0302608,86.7007014 13.3933362,78.0637972 C4.75641163,69.4265577 0,57.9432143 0,45.7288109 C0,33.5140721 4.75641163,22.0303934 13.3930009,13.3934892 C22.0299254,4.75658507 33.5131854,0 45.7271435,0 C57.9414368,0 69.4243615,4.75658507 78.0612861,13.3934892 L100,35.3330031 L121.938714,13.3934892 C130.575638,4.75658507 142.058563,0 154.272857,0 C166.48715,0 177.97041,4.75658507 186.606999,13.3934892 C195.243588,22.0303934 200,33.5140721 200,45.7288109 C200,57.9435497 195.243253,69.4272284 186.606999,78.0641326 C177.970075,86.7010367 166.486815,91.4572864 154.272857,91.4572864 Z M100,55.6501003 L122.175797,77.8267057 C130.749007,86.400229 142.148098,91.1219378 154.272857,91.1219378 C166.39728,91.1219378 177.796035,86.400229 186.369916,77.8267057 C194.943127,69.2531825 199.664664,57.8536762 199.664664,45.7284755 C199.664664,33.6032749 194.943127,22.204104 186.369916,13.6302454 C177.796706,5.05638675 166.397615,0.335013289 154.272857,0.335013289 C142.148433,0.335013289 130.749678,5.0567221 122.175797,13.6302454 L100,35.8068508 L77.8242032,13.6302454 C69.2509926,5.0567221 57.851902,0.335013289 45.7271435,0.335013289 C33.6027202,0.335013289 22.2036297,5.0567221 13.6300837,13.6302454 C5.05687306,22.204104 0.335336409,33.6036102 0.335336409,45.7288109 C0.335336409,57.8533409 5.05687306,69.2525118 13.6300837,77.8267057 C22.2036297,86.400229 33.6027202,91.1219378 45.7271435,91.1219378 C57.8515667,91.1219378 69.2506573,86.400229 77.8242032,77.8267057 L100,55.6501003 Z M154.272857,77.0909508 C145.896153,77.0909508 138.020442,73.8283439 132.09706,67.9047456 L109.920928,45.7281402 L132.09706,23.5515348 C138.020442,17.6279365 145.895818,14.3656649 154.272857,14.3656649 C162.649895,14.3656649 170.525271,17.6279365 176.448653,23.5515348 C182.372371,29.4751331 185.634859,37.3507959 185.634859,45.7281402 C185.634859,54.1048138 182.372371,61.9808119 176.448653,67.9047456 C170.525271,73.8286793 162.64956,77.0909508 154.272857,77.0909508 Z M110.395093,45.7284755 L132.334143,67.6679894 C138.194482,73.5285422 145.985688,76.7559375 154.272857,76.7559375 C162.560025,76.7559375 170.351231,73.5285422 176.21157,67.6679894 C182.07191,61.8071013 185.299522,54.0159464 185.299522,45.7284755 C185.299522,37.4406693 182.07191,29.6491791 176.21157,23.7889616 C170.351231,17.9287442 162.560025,14.7013489 154.272857,14.7013489 C145.985688,14.7013489 138.194482,17.9287442 132.334143,23.7889616 L110.395093,45.7284755 Z M45.7271435,77.0909508 C37.3501046,77.0909508 29.4743937,73.8286793 23.5513467,67.9050809 C17.6282997,61.9814826 14.3661471,54.1058199 14.3661471,45.7284755 C14.3661471,37.3507959 17.6282997,29.4747978 23.551682,23.5515348 C29.4750644,17.6279365 37.35044,14.3656649 45.7274788,14.3656649 C54.1045177,14.3656649 61.9798932,17.6279365 67.9032756,23.5515348 L90.0794077,45.7281402 L67.9032756,67.9050809 C61.9798932,73.8290146 54.1041823,77.0909508 45.7271435,77.0909508 Z M45.7274788,14.7013489 C37.4403101,14.7013489 29.6487686,17.9287442 23.7887649,23.7889616 C17.9287611,29.6491791 14.7014835,37.4406693 14.7014835,45.7288109 C14.7014835,54.0162818 17.9287611,61.807772 23.7884296,67.6683248 C29.6484333,73.5285422 37.4396394,76.7559375 45.7271435,76.7559375 C54.0146475,76.7559375 61.8058536,73.5285422 67.6658574,67.6683248 L89.6049066,45.7284755 L67.6658574,23.7889616 C61.806189,17.9287442 54.0146475,14.7013489 45.7274788,14.7013489 Z" id="Shape"></path>
            </g>
        </g>
        <g id="Limitless_Black_Med" transform="translate(2059.000000, 512.000000)">
            <text id="li-less" font-family="Avenir-Medium, Avenir" font-size="270" font-weight="400">
                <tspan x="10.21" y="270" fill="#000000">li</tspan>
                <tspan x="139.81" y="270" fill="#FFFFFF">     </tspan>
                <tspan x="515.11" y="270" fill="#000000">less</tspan>
            </text>
            <g id="MIT-Logo-Copy" transform="translate(152.000000, 83.000000)" fill="#000000" fill-rule="nonzero">
                <polygon id="Path" points="262 40 363 40 363 0 262 0"></polygon>
                <polygon id="Path" points="66 131 106 131 106 0 66 0"></polygon>
                <polygon id="Path" points="131 192 171 192 171 1 131 1"></polygon>
                <polygon id="Path" points="0 192 40 192 40 1 0 1"></polygon>
                <polygon id="Path" points="262 192 302 192 302 66 262 66"></polygon>
                <polygon id="Path" points="196 40 236 40 236 0 196 0"></polygon>
                <polygon id="Path" points="198 191 238 191 238 65 198 65"></polygon>
            </g>
            <g id="infinite-sign-copy" transform="translate(880.000000, 0.000000)" fill="#000000" fill-rule="nonzero">
                <path d="M45.4070762,91.4572864 C57.5359722,91.4572864 68.9382909,86.7007159 77.5145109,78.0636966 L99.4976545,55.9247083 L121.480798,78.0636966 C130.057018,86.7007159 141.459671,91.4572864 153.588233,91.4572864 C165.717129,91.4572864 177.119448,86.7003793 185.695668,78.0636966 C194.271888,69.4266773 198.994975,57.9431878 198.994975,45.7286432 C198.994975,33.513762 194.271888,22.0306091 185.695668,13.3935898 C177.119448,4.75657053 165.717129,0 153.588233,0 C141.459671,0 130.057018,4.75657053 121.480798,13.3935898 L99.4976545,35.5329148 L77.5145109,13.3939264 C68.9382909,4.75690712 57.535638,0 45.4070762,0 C33.2781802,0 21.8758615,4.75690712 13.2996415,13.3939264 C4.72308723,22.0306091 0,33.5140986 0,45.7289798 C0,57.9431878 4.72308723,69.4266773 13.2993073,78.0636966 C21.8758615,86.7007159 33.2781802,91.4572864 45.4070762,91.4572864 Z M131.605089,23.5893183 C137.476864,17.6759169 145.284396,14.4188172 153.588233,14.4188172 C161.892738,14.4188172 169.699602,17.6755804 175.571377,23.5893183 C181.443485,29.5027196 184.677657,37.3656013 184.677657,45.7286432 C184.677657,54.0916851 181.443485,61.9538937 175.571377,67.8676316 C169.699602,73.7810329 161.892404,77.0381326 153.588233,77.0381326 C145.284062,77.0381326 137.476864,73.7810329 131.605089,67.8676316 L109.621611,45.7286432 L131.605089,23.5893183 Z M23.4235983,23.5893183 C29.295373,17.6759169 37.1025707,14.4188172 45.406742,14.4188172 C53.7109133,14.4188172 61.5181109,17.6755804 67.3898856,23.5893183 L89.3733635,45.7286432 L67.3895514,67.8679682 C61.5177767,73.7813695 53.710579,77.0381326 45.4064078,77.0381326 C37.1022365,77.0381326 29.2947046,73.7813695 23.4229299,67.8679682 C17.5511553,61.9542302 14.3173177,54.0916851 14.3173177,45.7289798 C14.3173177,37.3656013 17.5514895,29.5030562 23.4235983,23.5893183 Z" id="Shape"></path>
                <path d="M154.272857,91.4572864 C142.058563,91.4572864 130.575303,86.7007014 121.938714,78.0637972 L100,56.1242833 L78.0616214,78.0637972 C69.4250322,86.7010367 57.9417722,91.4572864 45.7274788,91.4572864 C33.5131854,91.4572864 22.0302608,86.7007014 13.3933362,78.0637972 C4.75641163,69.4265577 0,57.9432143 0,45.7288109 C0,33.5140721 4.75641163,22.0303934 13.3930009,13.3934892 C22.0299254,4.75658507 33.5131854,0 45.7271435,0 C57.9414368,0 69.4243615,4.75658507 78.0612861,13.3934892 L100,35.3330031 L121.938714,13.3934892 C130.575638,4.75658507 142.058563,0 154.272857,0 C166.48715,0 177.97041,4.75658507 186.606999,13.3934892 C195.243588,22.0303934 200,33.5140721 200,45.7288109 C200,57.9435497 195.243253,69.4272284 186.606999,78.0641326 C177.970075,86.7010367 166.486815,91.4572864 154.272857,91.4572864 Z M100,55.6501003 L122.175797,77.8267057 C130.749007,86.400229 142.148098,91.1219378 154.272857,91.1219378 C166.39728,91.1219378 177.796035,86.400229 186.369916,77.8267057 C194.943127,69.2531825 199.664664,57.8536762 199.664664,45.7284755 C199.664664,33.6032749 194.943127,22.204104 186.369916,13.6302454 C177.796706,5.05638675 166.397615,0.335013289 154.272857,0.335013289 C142.148433,0.335013289 130.749678,5.0567221 122.175797,13.6302454 L100,35.8068508 L77.8242032,13.6302454 C69.2509926,5.0567221 57.851902,0.335013289 45.7271435,0.335013289 C33.6027202,0.335013289 22.2036297,5.0567221 13.6300837,13.6302454 C5.05687306,22.204104 0.335336409,33.6036102 0.335336409,45.7288109 C0.335336409,57.8533409 5.05687306,69.2525118 13.6300837,77.8267057 C22.2036297,86.400229 33.6027202,91.1219378 45.7271435,91.1219378 C57.8515667,91.1219378 69.2506573,86.400229 77.8242032,77.8267057 L100,55.6501003 Z M154.272857,77.0909508 C145.896153,77.0909508 138.020442,73.8283439 132.09706,67.9047456 L109.920928,45.7281402 L132.09706,23.5515348 C138.020442,17.6279365 145.895818,14.3656649 154.272857,14.3656649 C162.649895,14.3656649 170.525271,17.6279365 176.448653,23.5515348 C182.372371,29.4751331 185.634859,37.3507959 185.634859,45.7281402 C185.634859,54.1048138 182.372371,61.9808119 176.448653,67.9047456 C170.525271,73.8286793 162.64956,77.0909508 154.272857,77.0909508 Z M110.395093,45.7284755 L132.334143,67.6679894 C138.194482,73.5285422 145.985688,76.7559375 154.272857,76.7559375 C162.560025,76.7559375 170.351231,73.5285422 176.21157,67.6679894 C182.07191,61.8071013 185.299522,54.0159464 185.299522,45.7284755 C185.299522,37.4406693 182.07191,29.6491791 176.21157,23.7889616 C170.351231,17.9287442 162.560025,14.7013489 154.272857,14.7013489 C145.985688,14.7013489 138.194482,17.9287442 132.334143,23.7889616 L110.395093,45.7284755 Z M45.7271435,77.0909508 C37.3501046,77.0909508 29.4743937,73.8286793 23.5513467,67.9050809 C17.6282997,61.9814826 14.3661471,54.1058199 14.3661471,45.7284755 C14.3661471,37.3507959 17.6282997,29.4747978 23.551682,23.5515348 C29.4750644,17.6279365 37.35044,14.3656649 45.7274788,14.3656649 C54.1045177,14.3656649 61.9798932,17.6279365 67.9032756,23.5515348 L90.0794077,45.7281402 L67.9032756,67.9050809 C61.9798932,73.8290146 54.1041823,77.0909508 45.7271435,77.0909508 Z M45.7274788,14.7013489 C37.4403101,14.7013489 29.6487686,17.9287442 23.7887649,23.7889616 C17.9287611,29.6491791 14.7014835,37.4406693 14.7014835,45.7288109 C14.7014835,54.0162818 17.9287611,61.807772 23.7884296,67.6683248 C29.6484333,73.5285422 37.4396394,76.7559375 45.7271435,76.7559375 C54.0146475,76.7559375 61.8058536,73.5285422 67.6658574,67.6683248 L89.6049066,45.7284755 L67.6658574,23.7889616 C61.806189,17.9287442 54.0146475,14.7013489 45.7274788,14.7013489 Z" id="Shape"></path>
            </g>
        </g>
        <g id="Limitless_Black_CapLHeavy" transform="translate(885.000000, 153.000000)">
            <text id="Li-less" font-family="Avenir-Heavy, Avenir" font-size="270" font-weight="600">
                <tspan x="36.565" y="270" fill="#000000">Li</tspan>
                <tspan x="246.895" y="270" fill="#FFFFFF">     </tspan>
                <tspan x="646.495" y="270" fill="#000000">less</tspan>
            </text>
            <g id="MIT-Logo" transform="translate(275.000000, 83.000000)" fill="#000000" fill-rule="nonzero">
                <polygon id="Path" points="254.060606 40 352 40 352 0 254.060606 0"></polygon>
                <polygon id="Path" points="64 131 102.787879 131 102.787879 0 64 0"></polygon>
                <polygon id="Path" points="127.030303 192 165.818182 192 165.818182 1 127.030303 1"></polygon>
                <polygon id="Path" points="0 192 38.7878788 192 38.7878788 1 0 1"></polygon>
                <polygon id="Path" points="254.060606 192 292.848485 192 292.848485 66 254.060606 66"></polygon>
                <polygon id="Path" points="190.060606 40 228.848485 40 228.848485 0 190.060606 0"></polygon>
                <polygon id="Path" points="192 191 230.787879 191 230.787879 65 192 65"></polygon>
            </g>
            <g id="infinite-sign" transform="translate(980.000000, 0.000000)" fill="#000000" fill-rule="nonzero">
                <path d="M44.0448639,91 C55.8098931,91 66.8701422,86.2672123 75.1890756,77.6733781 L96.5127249,55.6450847 L117.836374,77.6733781 C126.155308,86.2672123 137.215881,91 148.980586,91 C160.745615,91 171.805864,86.2668774 180.124798,77.6733781 C188.443731,69.0795439 193.025126,57.6534719 193.025126,45.5 C193.025126,33.3461932 188.443731,21.9204561 180.124798,13.3266219 C171.805864,4.73278768 160.745615,0 148.980586,0 C137.215881,0 126.155308,4.73278768 117.836374,13.3266219 L96.5127249,35.3552502 L75.1890756,13.3269568 C66.8701422,4.73312258 55.8095689,0 44.0448639,0 C32.2798348,0 21.2195857,4.73312258 12.9006522,13.3269568 C4.58139462,21.9204561 0,33.3465281 0,45.5003349 C0,57.6534719 4.58139462,69.0795439 12.900328,77.6733781 C21.2195857,86.2672123 32.2798348,91 44.0448639,91 Z M127.656937,23.4713717 C133.352558,17.5875374 140.925864,14.3467231 148.980586,14.3467231 C157.035956,14.3467231 164.608614,17.5872025 170.304235,23.4713717 C176.000181,29.355206 179.137327,37.1787733 179.137327,45.5 C179.137327,53.8212267 176.000181,61.6441242 170.304235,67.5282934 C164.608614,73.4121277 157.035632,76.652942 148.980586,76.652942 C140.92554,76.652942 133.352558,73.4121277 127.656937,67.5282934 L106.332963,45.5 L127.656937,23.4713717 Z M22.7208904,23.4713717 C28.4165118,17.5875374 35.9894936,14.3467231 44.0445397,14.3467231 C52.0995859,14.3467231 59.6725676,17.5872025 65.368189,23.4713717 L86.6921626,45.5 L65.3678649,67.5286283 C59.6722434,73.4124626 52.0992617,76.652942 44.0442155,76.652942 C35.9891694,76.652942 28.4158635,73.4124626 22.720242,67.5286283 C17.0246206,61.6444591 13.8877982,53.8212267 13.8877982,45.5003349 C13.8877982,37.1787733 17.0249448,29.3555409 22.7208904,23.4713717 Z" id="Shape"></path>
                <path d="M149.644671,91 C137.796806,91 126.658044,86.2671979 118.280553,77.6734782 L97,55.8436619 L75.7197728,77.6734782 C67.3422812,86.2675315 56.203519,91 44.3556544,91 C32.5077899,91 21.3693529,86.2671979 12.9915361,77.6734782 C4.61371928,69.0794249 0,57.6534982 0,45.5001668 C0,33.3465018 4.61371928,21.9202414 12.9912108,13.3265218 C21.3690277,4.73280215 32.5077899,0 44.3553292,0 C56.2031937,0 67.3416307,4.73280215 75.7194475,13.3265218 L97,35.1563381 L118.280553,13.3265218 C126.658369,4.73280215 137.796806,0 149.644671,0 C161.492535,0 172.631298,4.73280215 181.008789,13.3265218 C189.386281,21.9202414 194,33.3465018 194,45.5001668 C194,57.6538319 189.385955,69.0800923 181.008789,77.6738119 C172.630972,86.2675315 161.49221,91 149.644671,91 Z M97,55.3718498 L118.510523,77.4375722 C126.826537,85.9682278 137.883655,90.6663281 149.644671,90.6663281 C161.405361,90.6663281 172.462154,85.9682278 180.778819,77.4375722 C189.094833,68.9069165 193.674724,57.5644078 193.674724,45.4998332 C193.674724,33.4352585 189.094833,22.0930835 180.778819,13.5620941 C172.462804,5.03110482 161.405687,0.333338222 149.644671,0.333338222 C137.88398,0.333338222 126.827188,5.03143849 118.510523,13.5620941 L97,35.6278165 L75.4894771,13.5620941 C67.1734628,5.03143849 56.116345,0.333338222 44.3553292,0.333338222 C32.5946386,0.333338222 21.5375208,5.03143849 13.2211812,13.5620941 C4.90516686,22.0930835 0.325276317,33.4355922 0.325276317,45.5001668 C0.325276317,57.5640742 4.90516686,68.9062492 13.2211812,77.4375722 C21.5375208,85.9682278 32.5946386,90.6663281 44.3553292,90.6663281 C56.1160197,90.6663281 67.1731375,85.9682278 75.4894771,77.4375722 L97,55.3718498 Z M149.644671,76.7054961 C141.519268,76.7054961 133.879829,73.4592022 128.134148,67.5652219 L106.6233,45.4994995 L128.134148,23.4337771 C133.879829,17.5397968 141.518943,14.2938366 149.644671,14.2938366 C157.770399,14.2938366 165.409513,17.5397968 171.155194,23.4337771 C176.9012,29.3277575 180.065813,37.1640419 180.065813,45.4994995 C180.065813,53.8342897 176.9012,61.6709078 171.155194,67.5652219 C165.409513,73.4595359 157.770073,76.7054961 149.644671,76.7054961 Z M107.083241,45.4998332 L128.364118,67.3296495 C134.048647,73.1608995 141.606117,76.3721578 149.644671,76.3721578 C157.683224,76.3721578 165.240694,73.1608995 170.925223,67.3296495 C176.609752,61.4980658 179.740537,53.7458667 179.740537,45.4998332 C179.740537,37.253466 176.609752,29.5009332 170.925223,23.6700168 C165.240694,17.8391005 157.683224,14.6278422 149.644671,14.6278422 C141.606117,14.6278422 134.048647,17.8391005 128.364118,23.6700168 L107.083241,45.4998332 Z M44.3553292,76.7054961 C36.2296015,76.7054961 28.5901619,73.4595359 22.8448063,67.5655555 C17.0994507,61.6715752 13.9351627,53.8352908 13.9351627,45.4998332 C13.9351627,37.1640419 17.0994507,29.3274238 22.8451316,23.4337771 C28.5908125,17.5397968 36.2299268,14.2938366 44.3556544,14.2938366 C52.4813821,14.2938366 60.1204964,17.5397968 65.8661773,23.4337771 L87.3770254,45.4994995 L65.8661773,67.5655555 C60.1204964,73.4598695 52.4810568,76.7054961 44.3553292,76.7054961 Z M44.3556544,14.6278422 C36.3171008,14.6278422 28.7593056,17.8391005 23.0751019,23.6700168 C17.3908983,29.5009332 14.260439,37.253466 14.260439,45.5001668 C14.260439,53.7462004 17.3908983,61.4987331 23.0747767,67.3299832 C28.7589803,73.1608995 36.3164503,76.3721578 44.3553292,76.3721578 C52.3942081,76.3721578 59.951678,73.1608995 65.6358817,67.3299832 L86.9167594,45.4998332 L65.6358817,23.6700168 C59.9520033,17.8391005 52.3942081,14.6278422 44.3556544,14.6278422 Z" id="Shape"></path>
            </g>
        </g>
    </g>
</svg>