<?xml version="1.0" encoding="UTF-8"?>
<svg width="1117px" height="279px" viewBox="0 0 1117 279" version="1.1" xmlns="http://www.w3.org/2000/svg" xmlns:xlink="http://www.w3.org/1999/xlink">
    <!-- Generator: Sketch 61.2 (89653) - https://sketch.com -->
    <title>Limitless_White_CapLHeavy_SVG</title>
    <desc>Created with Sketch.</desc>
    <g id="Page-1" stroke="none" stroke-width="1" fill="none" fill-rule="evenodd">
        <g id="White-Text" transform="translate(-942.000000, -153.000000)" fill="#FFFFFF">
            <g id="Limitless_White_CapLHeavy" transform="translate(885.000000, 153.000000)">
                <text id="Li-less" font-family="Avenir-Heavy, Avenir" font-size="270" font-weight="600">
                    <tspan x="36.565" y="270">Li     less</tspan>
                </text>
                <g id="MIT-Logo" transform="translate(275.000000, 83.000000)" fill-rule="nonzero">
                    <polygon id="Path" points="254.060606 40 352 40 352 0 254.060606 0"></polygon>
                    <polygon id="Path" points="64 131 102.787879 131 102.787879 0 64 0"></polygon>
                    <polygon id="Path" points="127.030303 192 165.818182 192 165.818182 1 127.030303 1"></polygon>
                    <polygon id="Path" points="0 192 38.7878788 192 38.7878788 1 0 1"></polygon>
                    <polygon id="Path" points="254.060606 192 292.848485 192 292.848485 66 254.060606 66"></polygon>
                    <polygon id="Path" points="190.060606 40 228.848485 40 228.848485 0 190.060606 0"></polygon>
                    <polygon id="Path" points="192 191 230.787879 191 230.787879 65 192 65"></polygon>
                </g>
                <g id="infinite-sign" transform="translate(980.000000, 0.000000)" fill-rule="nonzero">
                    <path d="M44.0448639,91 C55.8098931,91 66.8701422,86.2672123 75.1890756,77.6733781 L96.5127249,55.6450847 L117.836374,77.6733781 C126.155308,86.2672123 137.215881,91 148.980586,91 C160.745615,91 171.805864,86.2668774 180.124798,77.6733781 C188.443731,69.0795439 193.025126,57.6534719 193.025126,45.5 C193.025126,33.3461932 188.443731,21.9204561 180.124798,13.3266219 C171.805864,4.73278768 160.745615,0 148.980586,0 C137.215881,0 126.155308,4.73278768 117.836374,13.3266219 L96.5127249,35.3552502 L75.1890756,13.3269568 C66.8701422,4.73312258 55.8095689,0 44.0448639,0 C32.2798348,0 21.2195857,4.73312258 12.9006522,13.3269568 C4.58139462,21.9204561 0,33.3465281 0,45.5003349 C0,57.6534719 4.58139462,69.0795439 12.900328,77.6733781 C21.2195857,86.2672123 32.2798348,91 44.0448639,91 Z M127.656937,23.4713717 C133.352558,17.5875374 140.925864,14.3467231 148.980586,14.3467231 C157.035956,14.3467231 164.608614,17.5872025 170.304235,23.4713717 C176.000181,29.355206 179.137327,37.1787733 179.137327,45.5 C179.137327,53.8212267 176.000181,61.6441242 170.304235,67.5282934 C164.608614,73.4121277 157.035632,76.652942 148.980586,76.652942 C140.92554,76.652942 133.352558,73.4121277 127.656937,67.5282934 L106.332963,45.5 L127.656937,23.4713717 Z M22.7208904,23.4713717 C28.4165118,17.5875374 35.9894936,14.3467231 44.0445397,14.3467231 C52.0995859,14.3467231 59.6725676,17.5872025 65.368189,23.4713717 L86.6921626,45.5 L65.3678649,67.5286283 C59.6722434,73.4124626 52.0992617,76.652942 44.0442155,76.652942 C35.9891694,76.652942 28.4158635,73.4124626 22.720242,67.5286283 C17.0246206,61.6444591 13.8877982,53.8212267 13.8877982,45.5003349 C13.8877982,37.1787733 17.0249448,29.3555409 22.7208904,23.4713717 Z" id="Shape"></path>
                    <path d="M149.644671,91 C137.796806,91 126.658044,86.2671979 118.280553,77.6734782 L97,55.8436619 L75.7197728,77.6734782 C67.3422812,86.2675315 56.203519,91 44.3556544,91 C32.5077899,91 21.3693529,86.2671979 12.9915361,77.6734782 C4.61371928,69.0794249 0,57.6534982 0,45.5001668 C0,33.3465018 4.61371928,21.9202414 12.9912108,13.3265218 C21.3690277,4.73280215 32.5077899,0 44.3553292,0 C56.2031937,0 67.3416307,4.73280215 75.7194475,13.3265218 L97,35.1563381 L118.280553,13.3265218 C126.658369,4.73280215 137.796806,0 149.644671,0 C161.492535,0 172.631298,4.73280215 181.008789,13.3265218 C189.386281,21.9202414 194,33.3465018 194,45.5001668 C194,57.6538319 189.385955,69.0800923 181.008789,77.6738119 C172.630972,86.2675315 161.49221,91 149.644671,91 Z M97,55.3718498 L118.510523,77.4375722 C126.826537,85.9682278 137.883655,90.6663281 149.644671,90.6663281 C161.405361,90.6663281 172.462154,85.9682278 180.778819,77.4375722 C189.094833,68.9069165 193.674724,57.5644078 193.674724,45.4998332 C193.674724,33.4352585 189.094833,22.0930835 180.778819,13.5620941 C172.462804,5.03110482 161.405687,0.333338222 149.644671,0.333338222 C137.88398,0.333338222 126.827188,5.03143849 118.510523,13.5620941 L97,35.6278165 L75.4894771,13.5620941 C67.1734628,5.03143849 56.116345,0.333338222 44.3553292,0.333338222 C32.5946386,0.333338222 21.5375208,5.03143849 13.2211812,13.5620941 C4.90516686,22.0930835 0.325276317,33.4355922 0.325276317,45.5001668 C0.325276317,57.5640742 4.90516686,68.9062492 13.2211812,77.4375722 C21.5375208,85.9682278 32.5946386,90.6663281 44.3553292,90.6663281 C56.1160197,90.6663281 67.1731375,85.9682278 75.4894771,77.4375722 L97,55.3718498 Z M149.644671,76.7054961 C141.519268,76.7054961 133.879829,73.4592022 128.134148,67.5652219 L106.6233,45.4994995 L128.134148,23.4337771 C133.879829,17.5397968 141.518943,14.2938366 149.644671,14.2938366 C157.770399,14.2938366 165.409513,17.5397968 171.155194,23.4337771 C176.9012,29.3277575 180.065813,37.1640419 180.065813,45.4994995 C180.065813,53.8342897 176.9012,61.6709078 171.155194,67.5652219 C165.409513,73.4595359 157.770073,76.7054961 149.644671,76.7054961 Z M107.083241,45.4998332 L128.364118,67.3296495 C134.048647,73.1608995 141.606117,76.3721578 149.644671,76.3721578 C157.683224,76.3721578 165.240694,73.1608995 170.925223,67.3296495 C176.609752,61.4980658 179.740537,53.7458667 179.740537,45.4998332 C179.740537,37.253466 176.609752,29.5009332 170.925223,23.6700168 C165.240694,17.8391005 157.683224,14.6278422 149.644671,14.6278422 C141.606117,14.6278422 134.048647,17.8391005 128.364118,23.6700168 L107.083241,45.4998332 Z M44.3553292,76.7054961 C36.2296015,76.7054961 28.5901619,73.4595359 22.8448063,67.5655555 C17.0994507,61.6715752 13.9351627,53.8352908 13.9351627,45.4998332 C13.9351627,37.1640419 17.0994507,29.3274238 22.8451316,23.4337771 C28.5908125,17.5397968 36.2299268,14.2938366 44.3556544,14.2938366 C52.4813821,14.2938366 60.1204964,17.5397968 65.8661773,23.4337771 L87.3770254,45.4994995 L65.8661773,67.5655555 C60.1204964,73.4598695 52.4810568,76.7054961 44.3553292,76.7054961 Z M44.3556544,14.6278422 C36.3171008,14.6278422 28.7593056,17.8391005 23.0751019,23.6700168 C17.3908983,29.5009332 14.260439,37.253466 14.260439,45.5001668 C14.260439,53.7462004 17.3908983,61.4987331 23.0747767,67.3299832 C28.7589803,73.1608995 36.3164503,76.3721578 44.3553292,76.3721578 C52.3942081,76.3721578 59.951678,73.1608995 65.6358817,67.3299832 L86.9167594,45.4998332 L65.6358817,23.6700168 C59.9520033,17.8391005 52.3942081,14.6278422 44.3556544,14.6278422 Z" id="Shape"></path>
                </g>
            </g>
        </g>
    </g>
</svg>