<?xml version="1.0" encoding="UTF-8"?>
<svg width="486px" height="50px" viewBox="0 0 486 50" version="1.1" xmlns="http://www.w3.org/2000/svg" xmlns:xlink="http://www.w3.org/1999/xlink">
    <!-- Generator: Sketch 50 (54983) - http://www.bohemiancoding.com/sketch -->
    <title>LL_Logo_white</title>
    <desc>Created with Sketch.</desc>
    <defs></defs>
    <g id="LL_Logo_white" stroke="none" stroke-width="1" fill="none" fill-rule="evenodd">
        <path d="M76.437,22.332 L58.299,22.332 L58.299,21.011 L58.875,21.011 C61.041,21.011 61.682,20.24 61.682,18.58 L61.682,5.041 C61.682,3.049 60.535,2.604 59.009,2.604 L58.367,2.604 L58.367,1.282 L69.836,1.282 L69.836,2.604 L68.859,2.604 C67.101,2.604 66.355,3.386 66.355,4.973 L66.355,18.922 C66.355,20.169 66.727,20.472 68.046,20.472 L72.343,20.472 C74.609,20.472 75.286,19.358 77.553,16.451 L78.909,16.451 L76.437,22.332" id="Fill-4" fill="#FFFFFE"></path>
        <path d="M79.811,1.282 L90.572,1.282 L90.572,2.604 L89.994,2.604 C88.168,2.604 87.427,3.386 87.427,5.141 L87.427,18.548 C87.427,20.2 87.998,21.011 90.066,21.011 L90.572,21.011 L90.572,22.332 L79.811,22.332 L79.811,21.011 L80.286,21.011 C82.08,21.011 82.756,20.169 82.756,18.68 L82.756,5.141 C82.756,3.386 82.149,2.604 80.254,2.604 L79.811,2.604 L79.811,1.282" id="Fill-5" fill="#FFFFFE"></path>
        <path d="M97.905,18.271 C97.905,20.341 98.551,21.011 101.254,21.011 L101.254,22.332 L93.069,22.332 L93.069,21.011 L93.269,21.011 C95.334,21.011 95.845,20.269 95.845,18.882 L95.845,3.346 C95.099,2.847 94.185,2.604 93.136,2.604 L93.136,1.282 L100.105,1.282 L113.913,15.706 L113.913,5.483 C113.913,3.049 113.405,2.604 110.697,2.604 L110.358,2.604 L110.358,1.282 L119.091,1.282 L119.091,2.604 L118.752,2.604 C116.65,2.604 115.982,3.049 115.982,4.33 L115.982,22.432 L114.117,22.432 L97.905,5.483 L97.905,18.271" id="Fill-6" fill="#FFFFFE"></path>
        <path d="M143.048,16.282 C142.777,18.078 141.966,20.677 141.159,22.432 C140.614,22.264 139.938,22.198 139.158,22.198 C137.566,22.198 135.876,22.806 133.338,22.806 C126.4,22.806 121.021,18 121.021,11.882 C121.021,5.654 126.738,0.78 133.98,0.78 C137.503,0.78 139.8,2.167 140.483,2.167 C140.751,2.167 140.954,2.064 141.159,1.824 L142.004,1.824 L142.306,7.752 L140.983,7.752 C139.903,4.396 137.503,2.501 134.254,2.501 C129.413,2.501 126.062,6.159 126.062,11.508 C126.062,16.959 129.787,21.15 134.624,21.15 C137.737,21.15 140.309,19.358 141.695,16.282 L143.048,16.282" id="Fill-7" fill="#FFFFFE"></path>
        <path d="M159.182,21.359 C163.883,21.359 166.083,17.289 166.083,12.627 C166.083,7.179 163.372,2.104 158.232,2.104 C153.93,2.104 151.129,5.421 151.129,10.524 C151.129,16.993 154.41,21.359 159.182,21.359 Z M159.044,0.646 C166.118,0.646 171.126,5.078 171.126,11.402 C171.126,17.427 166.489,22.806 158.402,22.806 C150.617,22.806 146.081,17.835 146.081,12.146 C146.081,5.449 151.497,0.646 159.044,0.646 Z" id="Fill-8" fill="#FFFFFE"></path>
        <path d="M191.219,22.332 L173.081,22.332 L173.081,21.011 L173.659,21.011 C175.823,21.011 176.468,20.24 176.468,18.58 L176.468,5.041 C176.468,3.049 175.316,2.604 173.791,2.604 L173.149,2.604 L173.149,1.282 L184.622,1.282 L184.622,2.604 L183.641,2.604 C181.879,2.604 181.134,3.386 181.134,4.973 L181.134,18.922 C181.134,20.169 181.508,20.472 182.829,20.472 L187.127,20.472 C189.393,20.472 190.072,19.358 192.34,16.451 L193.691,16.451 L191.219,22.332" id="Fill-9" fill="#FFFFFE"></path>
        <path d="M199.447,18.271 C199.447,20.341 200.093,21.011 202.798,21.011 L202.798,22.332 L194.609,22.332 L194.609,21.011 L194.807,21.011 C196.879,21.011 197.384,20.269 197.384,18.882 L197.384,3.346 C196.641,2.847 195.726,2.604 194.679,2.604 L194.679,1.282 L201.651,1.282 L215.455,15.706 L215.455,5.483 C215.455,3.049 214.943,2.604 212.235,2.604 L211.905,2.604 L211.905,1.282 L220.635,1.282 L220.635,2.604 L220.296,2.604 C218.194,2.604 217.521,3.049 217.521,4.33 L217.521,22.432 L215.659,22.432 L199.447,5.483 L199.447,18.271" id="Fill-10" fill="#FFFFFE"></path>
        <path d="M251.132,22.332 L232.996,22.332 L232.996,21.011 L233.569,21.011 C235.733,21.011 236.379,20.24 236.379,18.58 L236.379,5.041 C236.379,3.049 235.234,2.604 233.709,2.604 L233.067,2.604 L233.067,1.282 L244.533,1.282 L244.533,2.604 L243.558,2.604 C241.794,2.604 241.049,3.386 241.049,4.973 L241.049,18.922 C241.049,20.169 241.422,20.472 242.743,20.472 L247.042,20.472 C249.312,20.472 249.984,19.358 252.25,16.451 L253.6,16.451 L251.132,22.332" id="Fill-11" fill="#FFFFFE"></path>
        <path d="M265.063,4.744 L262.219,12.661 L268.178,12.661 L265.063,4.744 Z M261.549,14.521 L260.121,18.474 C259.513,20.2 259.548,21.011 262.797,21.011 L263.236,21.011 L263.236,22.332 L254.27,22.332 L254.27,21.011 L254.773,21.011 C256.401,21.011 257.243,20.269 258.091,17.897 L263.882,1.759 L263.508,0.78 L268.517,0.78 L275.284,17.975 C276.165,20.2 276.909,20.88 278.664,21.011 L278.664,22.332 L267.668,22.332 L267.668,21.011 L268.853,21.011 C270.916,21.011 271.219,20.101 270.545,18.445 L268.953,14.521 L261.549,14.521 Z" id="Fill-12" fill="#FFFFFE"></path>
        <path d="M289.498,17.77 C289.498,20.24 290.411,20.817 292.579,20.817 C296.368,20.817 297.317,18.377 297.317,16.106 C297.317,14.079 296.368,11.068 291.976,11.068 C291.326,11.068 290.006,11.134 289.498,11.168 L289.498,17.77 Z M289.498,9.719 C290.244,9.747 291.463,9.781 292.108,9.781 C295.491,9.781 296.336,7.951 296.336,6.225 C296.336,4.296 295.386,2.104 291.29,2.104 C290.583,2.104 290.074,2.127 289.498,2.204 L289.498,9.719 Z M284.829,5.586 C284.829,2.978 284.458,2.604 281.884,2.604 L281.034,2.604 L281.034,1.282 C281.884,1.26 283.506,1.117 285.303,1.014 C287.338,0.914 289.332,0.78 290.785,0.78 C295.012,0.78 298.265,1.357 300.093,3.18 C300.936,4.028 301.379,5.212 301.379,6.253 C301.379,8.322 300.024,9.607 297.213,10.218 L297.213,10.289 C300.493,11 302.569,13.232 302.569,15.974 C302.569,19.425 299.418,22.332 293.828,22.332 L280.738,22.332 L280.738,21.011 C284.047,21.011 284.829,20.169 284.829,18.172 L284.829,5.586 Z" id="Fill-13" fill="#FFFFFE"></path>
        <path d="M318.876,21.359 C323.577,21.359 325.78,17.289 325.78,12.627 C325.78,7.179 323.071,2.104 317.932,2.104 C313.627,2.104 310.82,5.421 310.82,10.524 C310.82,16.993 314.101,21.359 318.876,21.359 Z M318.743,0.646 C325.813,0.646 330.822,5.078 330.822,11.402 C330.822,17.427 326.18,22.806 318.097,22.806 C310.313,22.806 305.785,17.835 305.785,12.146 C305.785,5.449 311.191,0.646 318.743,0.646 Z" id="Fill-14" fill="#FFFFFE"></path>
        <path d="M340.76,11.979 L342.082,11.979 C346.17,11.979 348.54,10.726 348.54,7.11 C348.54,3.52 345.801,2.232 342.519,2.232 L340.76,2.232 L340.76,11.979 Z M340.76,18.548 C340.76,20.269 341.503,21.011 343.437,21.011 L344.448,21.011 L344.448,22.332 L332.604,22.332 L332.604,21.011 L333.14,21.011 C335.213,21.011 336.088,20.509 336.088,18.548 L336.088,5.181 C336.088,3.555 335.654,2.604 333.384,2.604 L332.669,2.604 L332.669,1.282 C334.359,1.183 335.654,1.117 337.035,1.014 C338.934,0.886 341.367,0.78 342.581,0.78 C347.567,0.78 350.269,1.419 351.959,3.118 C353.077,4.23 353.586,5.515 353.586,6.97 C353.586,9.544 351.726,11.573 348.579,12.415 C350.808,14.285 351.99,16.959 354.394,19.358 C355.786,20.743 356.73,21.15 358.861,21.359 L358.861,22.678 C358.119,22.706 357.782,22.706 356.764,22.706 C352.571,22.706 350.844,22.099 349.256,20.509 C347.567,18.819 345.603,15.261 343.437,13.399 L340.76,13.399 L340.76,18.548 Z" id="Fill-15" fill="#FFFFFE"></path>
        <path d="M371.287,4.744 L368.443,12.661 L374.404,12.661 L371.287,4.744 Z M367.771,14.521 L366.346,18.474 C365.736,20.2 365.772,21.011 369.023,21.011 L369.463,21.011 L369.463,22.332 L360.493,22.332 L360.493,21.011 L361.001,21.011 C362.621,21.011 363.476,20.269 364.324,17.897 L370.102,1.759 L369.728,0.78 L374.742,0.78 L381.504,17.975 C382.385,20.2 383.128,20.88 384.895,21.011 L384.895,22.332 L373.893,22.332 L373.893,21.011 L375.079,21.011 C377.142,21.011 377.439,20.101 376.771,18.445 L375.185,14.521 L367.771,14.521 Z" id="Fill-16" fill="#FFFFFE"></path>
        <path d="M398.3,18.474 C398.3,20.24 398.842,21.011 401.246,21.011 L402.059,21.011 L402.059,22.332 L389.877,22.332 L389.877,21.011 L391.03,21.011 C392.885,21.011 393.633,20.269 393.633,18.474 L393.633,3.049 L389.64,3.049 C387.028,3.049 386.629,3.448 385.982,7.035 L384.602,7.035 L385.206,0.712 L386.285,0.712 C386.56,0.948 386.735,1.117 386.929,1.183 C387.172,1.26 387.439,1.282 387.916,1.282 L404.028,1.282 C404.938,1.282 405.104,1.217 405.647,0.712 L406.73,0.712 L407.333,7.035 L405.948,7.035 C405.309,3.485 404.904,3.049 402.298,3.049 L398.3,3.049 L398.3,18.474" id="Fill-17" fill="#FFFFFE"></path>
        <path d="M423.037,21.359 C427.743,21.359 429.943,17.289 429.943,12.627 C429.943,7.179 427.238,2.104 422.088,2.104 C417.794,2.104 414.981,5.421 414.981,10.524 C414.981,16.993 418.271,21.359 423.037,21.359 Z M422.909,0.646 C429.976,0.646 434.987,5.078 434.987,11.402 C434.987,17.427 430.352,22.806 422.258,22.806 C414.479,22.806 409.946,17.835 409.946,12.146 C409.946,5.449 415.353,0.646 422.909,0.646 Z" id="Fill-18" fill="#FFFFFE"></path>
        <path d="M444.925,11.979 L446.242,11.979 C450.337,11.979 452.703,10.726 452.703,7.11 C452.703,3.52 449.963,2.232 446.68,2.232 L444.925,2.232 L444.925,11.979 Z M444.925,18.548 C444.925,20.269 445.669,21.011 447.593,21.011 L448.609,21.011 L448.609,22.332 L436.763,22.332 L436.763,21.011 L437.307,21.011 C439.376,21.011 440.247,20.509 440.247,18.548 L440.247,5.181 C440.247,3.555 439.811,2.604 437.547,2.604 L436.841,2.604 L436.841,1.282 C438.525,1.183 439.811,1.117 441.199,1.014 C443.09,0.886 445.534,0.78 446.752,0.78 C451.721,0.78 454.43,1.419 456.123,3.118 C457.244,4.23 457.747,5.515 457.747,6.97 C457.747,9.544 455.885,11.573 452.74,12.415 C454.972,14.285 456.156,16.959 458.561,19.358 C459.947,20.743 460.899,21.15 463.027,21.359 L463.027,22.678 C462.279,22.706 461.943,22.706 460.931,22.706 C456.737,22.706 455.003,22.099 453.42,20.509 C451.721,18.819 449.763,15.261 447.593,13.399 L444.925,13.399 L444.925,18.548 Z" id="Fill-19" fill="#FFFFFE"></path>
        <path d="M476.453,18.514 C476.453,20.135 476.966,21.011 479.4,21.011 L479.906,21.011 L479.906,22.332 L468.372,22.332 L468.372,21.011 L469.215,21.011 C471.246,21.011 471.796,20.101 471.796,18.58 L471.796,13.877 L464.515,4.196 C463.532,2.909 463.124,2.604 461.435,2.604 L461.2,2.604 L461.2,1.282 L472.23,1.282 L472.23,2.604 L471.822,2.604 C469.865,2.604 469.586,3.42 470.298,4.33 L475.713,11.471 L479.638,5.315 C480.517,3.929 480.789,2.604 478.419,2.604 L478.018,2.604 L478.018,1.282 L486,1.282 L486,2.604 C484.039,2.747 483.466,3.118 482.246,4.973 L476.453,13.877 L476.453,18.514" id="Fill-20" fill="#FFFFFE"></path>
        <path d="M77.741,49.306 L71.366,49.306 L71.366,48.103 L71.757,48.103 C72.424,48.103 72.896,47.975 73.122,47.727 C73.264,47.576 73.321,47.368 73.3,47.091 L72.764,38.798 L67.852,49.306 L66.855,49.306 L61.82,38.779 L61.321,47.13 C61.303,47.41 61.356,47.618 61.483,47.754 C61.672,47.962 62.052,48.079 62.683,48.103 L63.062,48.116 L63.062,49.306 L57.749,49.306 L57.749,48.103 L58.144,48.103 C59.415,48.103 59.538,48.048 59.639,46.149 L60.163,37.682 C60.246,36.295 60.221,36.251 59.227,36.19 L58.857,36.17 L58.857,35.016 L62.783,35.016 L67.779,45.451 L72.747,35.016 L76.589,35.016 L76.589,36.164 L76.226,36.19 C75.131,36.279 75.132,36.29 75.153,36.616 L75.848,46.468 C75.955,48.103 75.955,48.103 77.347,48.103 L77.741,48.103 L77.741,49.306" id="Fill-21" fill="#FFFFFE"></path>
        <path d="M83.442,43.097 L85.235,43.097 L84.323,40.682 L83.442,43.097 Z M90.7,49.306 L85.254,49.306 L85.254,48.196 L86.091,48.196 C86.825,48.196 86.979,48.118 87.009,48.09 C87.016,47.849 86.941,47.669 86.883,47.523 L85.817,44.631 L82.865,44.631 L81.899,47.245 C81.822,47.436 81.664,47.842 81.664,47.961 C81.664,48.163 82.274,48.196 82.639,48.196 L83.309,48.196 L83.309,49.306 L78.605,49.306 L78.605,48.2 L78.994,48.196 C79.85,48.178 79.942,48.176 80.457,46.774 L83.487,38.511 L83.172,37.73 L85.504,37.73 L89.138,47.38 C89.412,48.116 89.603,48.196 90.306,48.196 L90.7,48.196 L90.7,49.306 Z" id="Fill-22" fill="#FFFFFE"></path>
        <path d="M95.132,49.573 C94.458,49.573 93.693,49.363 93.187,49.222 C92.994,49.168 92.844,49.122 92.766,49.115 L92.649,49.294 L91.812,49.306 L91.345,45.939 L92.432,45.939 L92.501,46.245 C92.803,47.512 93.772,48.327 94.979,48.327 C95.914,48.327 96.918,47.826 96.918,46.724 C96.918,45.783 95.786,45.065 94.584,44.311 C93.133,43.397 91.488,42.355 91.488,40.584 C91.488,38.961 92.951,37.73 94.895,37.73 C95.825,37.73 96.322,37.909 96.685,38.035 C96.895,38.113 97.032,38.157 97.195,38.157 L97.315,37.998 L98.116,37.989 L98.513,40.931 L97.502,40.931 L97.403,40.679 C96.988,39.617 96.064,38.93 95.049,38.93 C94.151,38.93 93.547,39.41 93.547,40.128 C93.547,41.034 94.649,41.718 95.814,42.444 C97.297,43.363 98.979,44.411 98.979,46.293 C98.979,48.162 97.325,49.573 95.132,49.573" id="Fill-23" fill="#FFFFFE"></path>
        <path d="M103.946,49.573 C103.273,49.573 102.507,49.363 101.998,49.222 C101.807,49.168 101.657,49.122 101.583,49.115 L101.464,49.294 L100.623,49.306 L100.16,45.939 L101.246,45.939 L101.318,46.245 C101.614,47.512 102.586,48.327 103.792,48.327 C104.729,48.327 105.735,47.826 105.735,46.724 C105.735,45.783 104.602,45.065 103.403,44.311 C101.947,43.397 100.301,42.355 100.301,40.584 C100.301,38.961 101.768,37.73 103.708,37.73 C104.642,37.73 105.135,37.909 105.499,38.035 C105.708,38.113 105.845,38.157 106.012,38.157 L106.128,38.009 L106.93,37.989 L107.321,40.931 L106.315,40.931 L106.217,40.679 C105.805,39.617 104.881,38.93 103.862,38.93 C102.965,38.93 102.361,39.41 102.361,40.128 C102.361,41.034 103.463,41.718 104.627,42.444 C106.11,43.363 107.792,44.411 107.792,46.293 C107.792,48.162 106.138,49.573 103.946,49.573" id="Fill-24" fill="#FFFFFE"></path>
        <path d="M113.001,43.097 L114.793,43.097 L113.88,40.682 L113.001,43.097 Z M120.257,49.306 L114.818,49.306 L114.818,48.196 L115.647,48.196 C116.385,48.196 116.538,48.118 116.569,48.09 C116.576,47.85 116.502,47.672 116.444,47.525 L115.374,44.631 L112.424,44.631 L111.443,47.29 C111.367,47.483 111.224,47.85 111.223,47.961 C111.223,48.163 111.832,48.196 112.196,48.196 L112.863,48.196 L112.863,49.306 L108.165,49.306 L108.165,48.2 L108.553,48.196 C109.415,48.178 109.504,48.176 110.02,46.774 L113.044,38.51 L112.737,37.73 L115.062,37.73 L118.695,47.38 C118.968,48.113 119.173,48.196 119.863,48.196 L120.257,48.196 L120.257,49.306 Z" id="Fill-25" fill="#FFFFFE"></path>
        <path d="M126.436,49.573 C122.786,49.573 120.136,47.138 120.136,43.778 C120.136,40.277 122.856,37.73 126.606,37.73 C128.097,37.73 129.017,38.047 129.625,38.256 C129.861,38.341 130.067,38.409 130.173,38.409 L130.292,38.262 L130.484,38.31 L131.102,38.31 L131.309,41.555 L130.285,41.555 L130.193,41.292 C129.677,39.844 128.345,38.945 126.709,38.945 C124.163,38.945 122.52,40.713 122.52,43.444 C122.52,46.199 124.441,48.361 126.894,48.361 C128.571,48.361 129.808,47.609 130.678,46.058 L130.79,45.856 L131.865,45.856 L131.722,46.361 C131.488,47.171 131.015,48.255 130.597,48.932 L130.461,49.149 L130.204,49.112 C129.752,49.053 129.366,49.144 128.839,49.264 C128.25,49.403 127.516,49.573 126.436,49.573" id="Fill-26" fill="#FFFFFE"></path>
        <path d="M145.598,49.306 L140.019,49.306 L140.019,48.196 L140.938,48.196 C141.787,48.196 141.882,48.014 141.882,47.315 L141.882,44.275 L136.036,44.275 L136.036,47.104 C136.036,48.061 136.154,48.196 136.995,48.196 L137.391,48.196 L137.441,48.908 L137.441,49.306 L132.406,49.306 L132.406,48.196 L132.9,48.196 C133.751,48.196 133.843,48.02 133.843,47.353 L133.843,39.91 C133.843,39.285 133.775,39.154 132.99,39.099 L132.624,39.075 L132.624,37.989 L137.441,37.989 L137.441,39.099 L137.047,39.099 C136.151,39.099 136.036,39.146 136.036,40.334 L136.036,42.882 L141.882,42.882 L141.882,39.944 C141.882,39.306 141.808,39.099 140.938,39.099 L140.224,39.099 L140.224,37.989 L145.362,37.989 L145.362,39.088 L144.982,39.099 C144.183,39.126 144.073,39.246 144.073,40.094 L144.073,47.113 C144.073,48.101 144.245,48.196 145.03,48.196 L145.598,48.196 L145.598,49.306" id="Fill-27" fill="#FFFFFE"></path>
        <path d="M153.056,49.573 C149.846,49.573 147.771,47.746 147.771,44.922 L147.771,39.973 C147.771,39.188 147.742,39.118 146.704,39.099 L146.314,39.094 L146.314,37.989 L151.454,37.989 L151.454,39.099 L150.902,39.099 C150.12,39.099 149.965,39.243 149.965,39.944 L149.965,44.642 C149.965,46.779 151.161,47.906 153.423,47.906 C155.005,47.906 156.889,47.342 156.889,44.629 L156.889,40.684 C156.889,39.222 156.746,39.153 155.607,39.099 L155.229,39.083 L155.229,37.989 L159.997,37.989 L159.997,39.094 L159.607,39.099 C158.714,39.117 158.457,39.379 158.457,40.263 L158.457,44.835 C158.457,47.018 157.042,49.573 153.056,49.573" id="Fill-28" fill="#FFFFFE"></path>
        <path d="M164.287,49.573 C163.612,49.573 162.845,49.363 162.34,49.22 C162.148,49.167 161.999,49.122 161.923,49.115 L161.807,49.296 L160.966,49.306 L160.501,45.939 L161.58,45.939 L161.653,46.243 C161.956,47.51 162.929,48.327 164.135,48.327 C165.067,48.327 166.076,47.826 166.076,46.724 C166.076,45.783 164.942,45.065 163.743,44.311 C162.291,43.397 160.646,42.355 160.646,40.584 C160.646,38.961 162.106,37.73 164.048,37.73 C164.98,37.73 165.477,37.909 165.84,38.035 C166.049,38.113 166.186,38.157 166.348,38.157 L166.467,38 L167.271,37.989 L167.66,40.931 L166.657,40.931 L166.557,40.679 C166.143,39.617 165.219,38.93 164.199,38.93 C163.3,38.93 162.696,39.41 162.696,40.128 C162.696,41.034 163.799,41.718 164.963,42.444 C166.45,43.363 168.132,44.411 168.132,46.293 C168.132,48.162 166.479,49.573 164.287,49.573" id="Fill-29" fill="#FFFFFE"></path>
        <path d="M178.232,49.306 L168.502,49.306 L168.502,48.196 L169.367,48.196 C170.512,48.196 170.563,47.975 170.563,47.203 L170.563,40.054 C170.563,39.283 170.472,39.099 169.599,39.099 L168.834,39.099 L168.834,37.989 L177.724,37.989 L177.903,41.134 L176.845,41.134 L176.792,40.802 C176.577,39.392 176.216,39.392 175.929,39.392 L172.756,39.392 L172.756,42.764 L175.387,42.764 C175.683,42.764 175.898,42.764 175.974,41.857 L176.004,41.495 L177.085,41.495 L177.085,45.5 L176.016,45.5 L175.976,45.147 C175.865,44.16 175.714,44.16 175.215,44.16 L172.756,44.16 L172.756,47.368 C172.756,47.906 172.834,47.906 173.275,47.906 L175.877,47.906 C176.764,47.906 177.045,47.718 177.469,46.276 L177.55,45.995 L178.584,45.995 L178.232,49.306" id="Fill-30" fill="#FFFFFE"></path>
        <path d="M187.955,49.306 L181.835,49.306 L181.835,48.196 L182.857,48.196 C183.689,48.196 183.802,48.027 183.802,47.353 L183.802,39.392 L181.249,39.392 C180.95,39.392 180.667,39.392 180.403,40.936 L180.347,41.262 L179.273,41.262 L179.624,37.73 L180.645,37.73 L180.679,37.975 C180.736,37.984 180.782,37.989 180.827,37.989 L188.966,37.989 C189.035,37.989 189.082,37.984 189.113,37.978 L189.155,37.73 L190.167,37.73 L190.512,41.262 L189.446,41.262 L189.39,40.936 C189.126,39.392 188.843,39.392 188.545,39.392 L185.993,39.392 L185.993,47.353 C185.993,48.027 186.104,48.196 186.937,48.196 L187.955,48.196 L187.955,49.306" id="Fill-31" fill="#FFFFFE"></path>
        <path d="M200.091,49.306 L193.978,49.306 L193.978,48.196 L194.992,48.196 C195.829,48.196 195.939,48.027 195.939,47.353 L195.939,39.392 L193.387,39.392 C193.077,39.392 192.806,39.392 192.538,40.936 L192.48,41.262 L191.414,41.262 L191.76,37.73 L192.778,37.73 L192.815,37.974 C192.871,37.984 192.921,37.989 192.963,37.989 L201.099,37.989 C201.171,37.989 201.218,37.982 201.255,37.978 L201.292,37.73 L202.305,37.73 L202.654,41.262 L201.579,41.262 L201.523,40.936 C201.26,39.392 200.99,39.392 200.679,39.392 L198.131,39.392 L198.131,47.353 C198.131,48.027 198.244,48.196 199.07,48.196 L200.091,48.196 L200.091,49.306" id="Fill-32" fill="#FFFFFE"></path>
        <path d="M207.387,49.573 C206.715,49.573 205.952,49.363 205.447,49.222 C205.251,49.168 205.104,49.122 205.026,49.115 L204.908,49.294 L204.065,49.306 L203.604,45.939 L204.687,45.939 L204.76,46.245 C205.058,47.512 206.031,48.327 207.239,48.327 C208.171,48.327 209.176,47.826 209.176,46.724 C209.176,45.783 208.043,45.065 206.845,44.311 C205.394,43.397 203.746,42.355 203.746,40.584 C203.746,38.961 205.21,37.73 207.149,37.73 C208.081,37.73 208.575,37.909 208.938,38.035 C209.15,38.113 209.287,38.157 209.455,38.157 L209.574,37.995 L210.377,37.989 L210.764,40.931 L209.761,40.931 L209.664,40.679 C209.25,39.617 208.322,38.93 207.302,38.93 C206.407,38.93 205.806,39.41 205.806,40.128 C205.806,41.034 206.906,41.718 208.07,42.444 C209.555,43.363 211.235,44.411 211.235,46.293 C211.235,48.162 209.583,49.573 207.387,49.573" id="Fill-33" fill="#FFFFFE"></path>
        <path d="M226.312,49.306 L220.24,49.306 L220.24,48.118 L220.616,48.103 C221.693,48.051 221.864,47.946 221.864,46.623 L221.864,37.364 C221.864,36.435 221.667,36.245 220.613,36.19 L220.24,36.173 L220.24,34.984 L226.312,34.984 L226.312,36.19 L225.917,36.19 C224.683,36.19 224.467,36.395 224.467,37.554 L224.467,46.776 C224.467,47.836 224.64,48.103 225.917,48.103 L226.312,48.103 L226.312,49.306" id="Fill-34" fill="#FFFFFE"></path>
        <path d="M239.869,49.418 L238.869,49.418 L230.658,40.839 L230.658,47.113 C230.658,48.07 230.708,48.196 231.977,48.196 L232.369,48.196 L232.369,49.306 L227.655,49.306 L227.655,48.196 L228.049,48.196 C229.063,48.196 229.11,47.911 229.11,47.459 L229.11,39.35 C228.83,39.19 228.5,39.115 228.074,39.099 L227.691,39.089 L227.691,37.989 L230.914,37.989 L238.311,45.712 L238.311,39.96 C238.311,39.254 238.311,39.131 237.039,39.099 L236.656,39.091 L236.656,37.989 L241.402,37.989 L241.402,39.099 L241.006,39.099 C239.869,39.099 239.869,39.251 239.869,39.589 L239.869,49.418" id="Fill-35" fill="#FFFFFE"></path>
        <path d="M245.799,49.573 C245.129,49.573 244.368,49.363 243.86,49.222 C243.67,49.168 243.518,49.122 243.437,49.115 L243.319,49.294 L242.478,49.306 L242.016,45.939 L243.1,45.939 L243.168,46.245 C243.469,47.512 244.44,48.327 245.647,48.327 C246.583,48.327 247.586,47.826 247.586,46.724 C247.586,45.783 246.45,45.065 245.255,44.311 C243.8,43.397 242.154,42.355 242.154,40.584 C242.154,38.961 243.62,37.73 245.564,37.73 C246.492,37.73 246.991,37.909 247.348,38.035 C247.557,38.113 247.698,38.157 247.862,38.157 L247.979,37.995 L248.786,37.989 L249.179,40.931 L248.169,40.931 L248.071,40.679 C247.656,39.617 246.735,38.93 245.712,38.93 C244.814,38.93 244.214,39.41 244.214,40.128 C244.214,41.034 245.314,41.718 246.479,42.444 C247.96,43.363 249.64,44.411 249.64,46.293 C249.64,48.162 247.991,49.573 245.799,49.573" id="Fill-36" fill="#FFFFFE"></path>
        <path d="M259.127,49.306 L253.008,49.306 L253.008,48.196 L254.025,48.196 C254.859,48.196 254.97,48.027 254.97,47.353 L254.97,39.392 L252.423,39.392 C252.121,39.392 251.839,39.392 251.566,40.936 L251.51,41.262 L250.442,41.262 L250.792,37.73 L251.823,37.73 L251.854,37.975 C251.907,37.984 251.954,37.989 251.998,37.989 L260.136,37.989 C260.199,37.989 260.249,37.984 260.283,37.978 L260.318,37.73 L261.339,37.73 L261.682,41.262 L260.615,41.262 L260.56,40.936 C260.295,39.392 260.024,39.392 259.713,39.392 L257.164,39.392 L257.164,47.353 C257.164,48.027 257.274,48.196 258.101,48.196 L259.127,48.196 L259.127,49.306" id="Fill-37" fill="#FFFFFE"></path>
        <path d="M267.557,49.306 L262.655,49.306 L262.655,48.213 L263.029,48.196 C263.824,48.154 263.927,48.093 263.927,47.132 L263.927,39.929 C263.927,39.293 263.842,39.139 263.029,39.099 L262.655,39.083 L262.655,37.989 L267.557,37.989 L267.557,39.099 L267.159,39.099 C266.247,39.099 266.116,39.222 266.116,40.078 L266.116,47.253 C266.116,48.03 266.208,48.196 267.159,48.196 L267.557,48.196 L267.557,49.306" id="Fill-38" fill="#FFFFFE"></path>
        <path d="M277.19,49.306 L271.07,49.306 L271.07,48.196 L272.098,48.196 C272.93,48.196 273.04,48.027 273.04,47.353 L273.04,39.392 L270.486,39.392 C270.173,39.392 269.903,39.392 269.639,40.936 L269.582,41.262 L268.513,41.262 L268.859,37.73 L269.877,37.73 L269.911,37.974 C269.967,37.984 270.016,37.989 270.063,37.989 L278.204,37.989 C278.271,37.989 278.319,37.984 278.347,37.978 L278.387,37.73 L279.403,37.73 L279.754,41.262 L278.689,41.262 L278.633,40.936 C278.365,39.392 278.08,39.392 277.788,39.392 L275.229,39.392 L275.229,47.353 C275.229,48.027 275.339,48.196 276.171,48.196 L277.19,48.196 L277.19,49.306" id="Fill-39" fill="#FFFFFE"></path>
        <path d="M287.215,49.573 C284.009,49.573 281.933,47.746 281.933,44.922 L281.933,39.973 C281.933,39.188 281.905,39.118 280.869,39.099 L280.482,39.094 L280.482,37.989 L285.616,37.989 L285.616,39.099 L285.069,39.099 C284.287,39.099 284.128,39.243 284.128,39.944 L284.128,44.642 C284.128,46.779 285.326,47.906 287.59,47.906 C289.164,47.906 291.05,47.342 291.05,44.629 L291.05,40.684 C291.05,39.222 290.903,39.153 289.768,39.099 L289.394,39.083 L289.394,37.989 L294.155,37.989 L294.155,39.094 L293.77,39.099 C292.879,39.117 292.621,39.379 292.621,40.263 L292.621,44.835 C292.621,47.018 291.204,49.573 287.215,49.573" id="Fill-40" fill="#FFFFFE"></path>
        <path d="M303.517,49.306 L297.391,49.306 L297.391,48.196 L298.418,48.196 C299.25,48.196 299.36,48.027 299.36,47.353 L299.36,39.392 L296.805,39.392 C296.51,39.392 296.224,39.392 295.954,40.938 L295.896,41.262 L294.832,41.262 L295.178,37.73 L296.192,37.73 L296.23,37.974 C296.278,37.982 296.328,37.989 296.383,37.989 L304.523,37.989 C304.589,37.989 304.639,37.982 304.668,37.978 L304.709,37.73 L305.73,37.73 L306.077,41.262 L304.998,41.262 L304.944,40.934 C304.686,39.392 304.398,39.392 304.103,39.392 L301.552,39.392 L301.552,47.353 C301.552,48.027 301.662,48.196 302.494,48.196 L303.517,48.196 L303.517,49.306" id="Fill-41" fill="#FFFFFE"></path>
        <path d="M316.237,49.306 L306.506,49.306 L306.506,48.196 L307.37,48.196 C308.565,48.196 308.565,47.926 308.565,47.203 L308.565,40.054 C308.565,39.283 308.481,39.099 307.61,39.099 L306.845,39.099 L306.845,37.989 L315.731,37.989 L315.911,41.134 L314.856,41.134 L314.804,40.802 C314.581,39.392 314.227,39.392 313.935,39.392 L310.762,39.392 L310.762,42.764 L313.401,42.764 C313.682,42.764 313.909,42.764 313.985,41.857 L314.019,41.495 L315.094,41.495 L315.094,45.5 L314.027,45.5 L313.985,45.149 C313.873,44.16 313.723,44.16 313.229,44.16 L310.762,44.16 L310.762,47.368 C310.762,47.906 310.854,47.906 311.28,47.906 L313.886,47.906 C314.774,47.906 315.052,47.718 315.476,46.276 L315.562,45.995 L316.599,45.995 L316.237,49.306" id="Fill-42" fill="#FFFFFE"></path>
        <path d="M328.242,38.945 C325.477,38.945 324.472,41.582 324.472,43.357 C324.472,46.209 326.395,48.361 328.953,48.361 C331.484,48.361 332.638,46.057 332.638,43.921 C332.638,40.992 330.833,38.945 328.242,38.945 Z M328.602,49.573 C324.894,49.573 322.097,47.13 322.097,43.884 C322.097,40.317 324.864,37.73 328.687,37.73 C332.233,37.73 335.014,40.202 335.014,43.357 C335.014,46.842 332.195,49.573 328.602,49.573 Z" id="Fill-43" fill="#FFFFFE"></path>
        <path d="M340.934,49.306 L336.036,49.306 L336.036,48.218 L336.404,48.196 C337.214,48.143 337.278,48.138 337.278,46.932 L337.278,40.3 C337.278,39.261 337.224,39.115 336.397,39.099 L336.011,39.094 L336.011,37.989 L344.37,37.989 L344.37,40.778 L343.301,40.778 L343.297,40.392 C343.285,39.589 343.086,39.392 342.29,39.392 L339.461,39.392 L339.461,42.576 L342.419,42.576 C342.71,42.576 342.971,42.522 343.005,41.866 L343.03,41.495 L344.085,41.495 L344.085,45.26 L343.022,45.26 L343.005,44.88 C342.981,44.053 342.756,43.973 342.202,43.973 L339.461,43.973 L339.461,47.29 C339.461,47.985 339.461,48.196 340.543,48.196 L340.934,48.196 L340.934,49.306" id="Fill-44" fill="#FFFFFE"></path>
        <path d="M363.887,49.306 L356.252,49.306 L356.252,48.103 L357.448,48.103 C358.6,48.103 358.771,47.833 358.771,46.901 L358.771,36.562 L355.383,36.562 C354.857,36.562 354.518,36.705 354.182,38.647 L354.125,38.974 L352.968,38.974 L353.394,34.66 L354.483,34.66 L354.546,34.977 C354.621,34.969 354.727,34.984 354.839,34.984 L365.301,34.984 C365.504,34.984 365.6,34.951 365.616,34.933 L365.671,34.605 L365.977,34.66 L366.748,34.66 L367.18,38.974 L366.014,38.974 L365.959,38.646 C365.629,36.708 365.273,36.562 364.758,36.562 L361.371,36.562 L361.371,46.901 C361.371,47.833 361.543,48.103 362.689,48.103 L363.887,48.103 L363.887,49.306" id="Fill-45" fill="#FFFFFE"></path>
        <path d="M377.68,49.306 L367.94,49.306 L367.94,48.196 L368.813,48.196 C370.004,48.196 370.004,47.943 370.004,47.203 L370.004,40.054 C370.004,39.283 369.919,39.099 369.047,39.099 L368.281,39.099 L368.281,37.989 L377.161,37.989 L377.353,41.134 L376.297,41.134 L376.246,40.803 C376.018,39.392 375.665,39.392 375.375,39.392 L372.202,39.392 L372.202,42.764 L374.831,42.764 C375.132,42.764 375.349,42.764 375.417,41.858 L375.449,41.495 L376.533,41.495 L376.533,45.5 L375.459,45.5 L375.419,45.147 C375.313,44.16 375.15,44.16 374.667,44.16 L372.202,44.16 L372.202,47.368 C372.202,47.906 372.284,47.906 372.718,47.906 L375.32,47.906 C376.21,47.906 376.487,47.718 376.91,46.276 L376.995,45.995 L378.023,45.995 L377.68,49.306" id="Fill-46" fill="#FFFFFE"></path>
        <path d="M385.413,49.573 C381.755,49.573 379.105,47.138 379.105,43.778 C379.105,40.277 381.828,37.73 385.575,37.73 C387.067,37.73 387.983,38.047 388.596,38.256 C388.831,38.341 389.037,38.409 389.145,38.409 L389.268,38.273 L389.451,38.31 L390.078,38.31 L390.277,41.555 L389.263,41.555 L389.168,41.292 C388.648,39.844 387.314,38.945 385.682,38.945 C383.131,38.945 381.486,40.713 381.486,43.444 C381.486,46.199 383.413,48.361 385.862,48.361 C387.539,48.361 388.775,47.609 389.652,46.057 L389.765,45.856 L390.835,45.856 L390.693,46.361 C390.457,47.172 389.982,48.255 389.565,48.932 L389.433,49.149 L389.177,49.112 C388.719,49.053 388.337,49.142 387.809,49.264 C387.222,49.403 386.487,49.573 385.413,49.573" id="Fill-47" fill="#FFFFFE"></path>
        <path d="M404.573,49.306 L398.991,49.306 L398.991,48.196 L399.906,48.196 C400.76,48.196 400.85,48.014 400.85,47.315 L400.85,44.275 L395.012,44.275 L395.012,47.104 C395.012,48.061 395.127,48.196 395.964,48.196 L396.354,48.196 L396.412,48.908 L396.412,49.306 L391.377,49.306 L391.377,48.196 L391.873,48.196 C392.723,48.196 392.817,48.02 392.817,47.353 L392.817,39.91 C392.817,39.293 392.745,39.154 391.965,39.099 L391.599,39.075 L391.599,37.989 L396.412,37.989 L396.412,39.099 L396.021,39.099 C395.125,39.099 395.012,39.146 395.012,40.334 L395.012,42.882 L400.85,42.882 L400.85,39.944 C400.85,39.306 400.777,39.099 399.906,39.099 L399.199,39.099 L399.199,37.989 L404.324,37.989 L404.324,39.088 L403.944,39.099 C403.152,39.126 403.043,39.246 403.043,40.094 L403.043,47.113 C403.043,48.101 403.212,48.196 404.005,48.196 L404.573,48.196 L404.573,49.306" id="Fill-48" fill="#FFFFFE"></path>
        <path d="M417.712,49.418 L416.71,49.418 L408.513,40.839 L408.513,47.113 C408.513,48.032 408.513,48.196 409.819,48.196 L410.216,48.196 L410.216,49.306 L405.509,49.306 L405.509,48.196 L405.899,48.196 C406.896,48.196 406.961,47.912 406.961,47.459 L406.961,39.35 C406.679,39.188 406.356,39.115 405.917,39.099 L405.537,39.089 L405.537,37.989 L408.753,37.989 L416.161,45.712 L416.161,39.96 C416.161,39.254 416.161,39.131 414.893,39.099 L414.503,39.091 L414.503,37.989 L419.252,37.989 L419.252,39.099 L418.86,39.099 C417.712,39.099 417.712,39.251 417.712,39.589 L417.712,49.418" id="Fill-49" fill="#FFFFFE"></path>
        <path d="M425.983,38.945 C423.224,38.945 422.215,41.582 422.215,43.357 C422.215,46.209 424.14,48.361 426.688,48.361 C429.224,48.361 430.38,46.057 430.38,43.921 C430.38,40.992 428.572,38.945 425.983,38.945 Z M426.339,49.573 C422.63,49.573 419.836,47.13 419.836,43.884 C419.836,40.317 422.606,37.73 426.42,37.73 C429.976,37.73 432.753,40.202 432.753,43.357 C432.753,46.899 429.996,49.573 426.339,49.573 Z" id="Fill-50" fill="#FFFFFE"></path>
        <path d="M441.56,49.306 L433.367,49.306 L433.367,48.196 L434.317,48.196 C434.869,48.196 434.992,48.135 434.992,47.472 L434.992,39.973 C434.992,39.312 434.915,39.099 434.046,39.099 L433.418,39.099 L433.418,37.989 L439.203,37.989 L439.203,39.099 L438.176,39.099 C437.182,39.099 437.182,39.144 437.182,39.873 L437.182,47.68 C437.182,47.833 437.211,47.873 437.213,47.875 C437.213,47.875 437.263,47.906 437.465,47.906 L439.959,47.906 C440.72,47.906 440.925,47.692 442.003,46.207 L442.12,46.045 L443.279,46.045 L441.56,49.306" id="Fill-51" fill="#FFFFFE"></path>
        <path d="M449.845,38.945 C447.084,38.945 446.08,41.582 446.08,43.357 C446.08,46.209 448.009,48.361 450.559,48.361 C453.089,48.361 454.244,46.057 454.244,43.921 C454.244,40.992 452.438,38.945 449.845,38.945 Z M450.202,49.573 C446.496,49.573 443.7,47.13 443.7,43.884 C443.7,40.317 446.468,37.73 450.289,37.73 C453.838,37.73 456.62,40.202 456.62,43.357 C456.62,46.842 453.799,49.573 450.202,49.573 Z" id="Fill-52" fill="#FFFFFE"></path>
        <path d="M463.849,49.573 C460.025,49.573 458.03,46.693 458.03,43.85 C458.03,41.394 459.701,37.73 464.318,37.73 C465.633,37.73 466.638,38.023 467.236,38.196 C467.423,38.249 467.63,38.309 467.692,38.31 C467.773,38.31 467.815,38.294 467.822,38.288 L467.933,38.194 L468.705,38.194 L468.705,41.723 L467.658,41.723 L467.593,41.411 C467.233,39.756 466.227,38.945 464.515,38.945 C461.674,38.945 460.404,41.358 460.404,43.744 C460.404,47.135 462.785,48.361 464.385,48.361 C465.129,48.361 465.853,48.199 466.586,47.859 L466.586,45.984 C466.586,45.285 466.468,45.092 465.623,45.092 L464.603,45.092 L464.603,43.995 L469.962,43.995 L469.962,45.065 L469.592,45.092 C468.854,45.139 468.772,45.329 468.772,45.767 L468.772,48.354 L468.561,48.462 C466.801,49.372 464.559,49.573 463.849,49.573" id="Fill-53" fill="#FFFFFE"></path>
        <path d="M479.084,49.306 L473.638,49.306 L473.638,48.196 L474.357,48.196 C475.226,48.196 475.312,47.943 475.312,47.368 L475.312,45.102 L472.363,40.499 C471.574,39.258 471.283,39.128 470.371,39.099 L469.983,39.089 L469.983,37.989 L475.28,37.989 L475.28,39.099 L474.883,39.099 C474.308,39.099 474.125,39.17 474.075,39.193 C474.098,39.199 474.137,39.318 474.311,39.597 L476.672,43.235 L478.736,39.728 C478.974,39.33 478.939,39.201 478.939,39.201 C478.937,39.201 478.82,39.099 478.207,39.099 L477.815,39.099 L477.815,37.989 L482.434,37.989 L482.434,39.073 L482.068,39.099 C481.066,39.175 480.675,39.544 480.258,40.244 L477.506,44.901 L477.506,47.334 C477.506,48.001 477.629,48.196 478.464,48.196 L479.084,48.196 L479.084,49.306" id="Fill-54" fill="#FFFFFE"></path>
        <path d="M31.508,11.599 C32.397,12.153 33.188,12.844 33.875,13.663 C34.008,13.42 34.097,13.227 34.191,13.024 C34.255,12.883 34.319,12.75 34.392,12.599 C34.682,12.034 34.767,11.558 34.619,11.315 C34.471,11.076 34.047,11.037 33.809,11.037 C33.653,11.037 33.486,11.05 33.305,11.081 C32.781,11.168 32.178,11.338 31.508,11.599 Z M15.9,11.037 C15.661,11.037 15.237,11.076 15.087,11.316 C14.941,11.56 15.024,12.034 15.31,12.596 C15.387,12.748 15.449,12.883 15.513,13.022 C15.609,13.229 15.7,13.425 15.839,13.674 C16.524,12.873 17.32,12.188 18.219,11.625 C17.513,11.345 16.905,11.165 16.401,11.081 C16.222,11.05 16.056,11.037 15.9,11.037 Z M21.125,11.642 C22.341,12.292 23.642,13.085 24.858,13.92 C26.146,13.024 27.403,12.24 28.574,11.607 C26.337,10.924 23.425,10.908 21.125,11.642 Z M25.921,14.688 C27.245,15.719 28.763,17.124 30.113,18.568 C30.905,17.679 31.535,16.936 32.027,16.308 C32.518,15.675 32.889,15.178 33.174,14.768 C32.333,13.681 31.3,12.826 30.093,12.22 C28.822,12.836 27.397,13.681 25.921,14.688 Z M16.536,14.774 C16.821,15.184 17.191,15.678 17.683,16.308 C18.177,16.941 18.816,17.693 19.619,18.602 C20.973,17.132 22.488,15.717 23.798,14.699 C22.403,13.763 20.928,12.895 19.62,12.255 C18.403,12.875 17.369,13.719 16.536,14.774 Z M30.949,19.497 C31.932,20.624 33.068,22.067 33.887,23.538 C34.662,21.329 35.282,18.223 33.913,15.866 C33.665,16.206 33.364,16.606 33.003,17.074 C32.477,17.741 31.802,18.536 30.951,19.488 L30.952,19.49 L30.949,19.497 Z M15.794,15.868 C14.351,18.353 15.167,21.634 15.883,23.569 C16.69,22.104 17.815,20.66 18.79,19.528 L18.784,19.525 L18.785,19.524 C17.922,18.56 17.237,17.749 16.707,17.074 C16.343,16.608 16.042,16.208 15.794,15.868 Z M20.454,19.521 C21.588,20.765 22.764,21.997 23.707,22.988 C24.149,23.452 24.54,23.857 24.849,24.192 L24.856,24.181 L24.861,24.192 C25.173,23.856 25.561,23.443 26.006,22.983 C26.953,21.987 28.14,20.738 29.279,19.488 C27.845,17.944 26.214,16.451 24.862,15.442 C23.516,16.449 21.89,17.952 20.454,19.521 Z M25.699,25.109 C26.007,25.44 26.413,25.863 26.873,26.354 C27.792,27.315 28.935,28.517 30.049,29.732 C31.556,27.961 32.686,26.334 33.274,25.073 C32.686,23.737 31.6,22.144 30.111,20.419 C28.993,21.641 27.834,22.857 26.902,23.836 C26.428,24.332 26.016,24.771 25.699,25.109 Z M16.524,25.061 C17.246,26.533 18.318,28.128 19.652,29.735 C20.77,28.521 21.918,27.313 22.839,26.344 C23.301,25.86 23.703,25.438 24.014,25.109 C23.697,24.772 23.283,24.335 22.81,23.841 C21.888,22.874 20.741,21.67 19.626,20.456 C18.184,22.146 17.096,23.754 16.524,25.061 Z M15.936,26.599 C14.764,30.01 14.73,32.43 15.795,34.346 C16.042,34.007 16.343,33.606 16.706,33.141 C17.242,32.455 17.933,31.645 18.809,30.661 L18.811,30.658 C17.657,29.282 16.682,27.906 15.936,26.599 Z M30.886,30.653 C31.769,31.64 32.462,32.454 33.002,33.141 C33.364,33.608 33.665,34.009 33.913,34.349 C34.991,32.491 34.971,29.895 33.857,26.608 C33.154,27.813 32.139,29.193 30.886,30.65 L30.887,30.653 L30.886,30.653 Z M20.468,30.68 C21.883,32.259 23.473,33.744 24.858,34.774 C26.123,33.822 27.734,32.304 29.223,30.661 C28.089,29.424 26.915,28.187 25.977,27.206 C25.547,26.752 25.165,26.355 24.862,26.025 L24.856,26.039 L24.847,26.025 C24.545,26.354 24.167,26.748 23.736,27.202 C22.792,28.187 21.61,29.432 20.468,30.68 Z M16.527,35.455 C17.34,36.507 18.372,37.352 19.602,37.972 C20.912,37.331 22.393,36.46 23.793,35.519 C22.456,34.482 20.968,33.08 19.634,31.602 C18.822,32.508 18.179,33.27 17.683,33.907 C17.185,34.543 16.813,35.044 16.527,35.455 Z M25.917,35.521 C27.399,36.538 28.826,37.384 30.092,37.997 C31.3,37.392 32.334,36.538 33.175,35.448 C32.889,35.037 32.519,34.54 32.026,33.907 C31.524,33.267 30.876,32.5 30.059,31.587 C28.646,33.135 27.167,34.542 25.917,35.521 Z M21.12,38.587 C23.416,39.306 26.333,39.293 28.572,38.609 C27.404,37.978 26.147,37.194 24.857,36.297 C23.635,37.137 22.336,37.93 21.12,38.587 Z M15.827,36.56 C15.696,36.803 15.607,36.995 15.513,37.197 C15.45,37.337 15.388,37.472 15.312,37.621 C15.025,38.184 14.942,38.657 15.086,38.893 C15.236,39.139 15.661,39.178 15.9,39.178 C16.056,39.178 16.222,39.159 16.404,39.134 C16.901,39.054 17.501,38.877 18.194,38.602 C17.293,38.039 16.502,37.357 15.827,36.56 Z M31.508,38.62 C32.178,38.879 32.781,39.049 33.306,39.134 C33.486,39.159 33.653,39.178 33.809,39.178 C34.048,39.178 34.471,39.139 34.62,38.895 C34.767,38.659 34.681,38.186 34.394,37.627 C34.319,37.472 34.254,37.337 34.191,37.195 C34.097,36.991 34.008,36.798 33.875,36.554 C33.188,37.367 32.397,38.063 31.508,38.62 Z M33.809,40.414 C33.596,40.414 33.363,40.397 33.115,40.355 C32.253,40.225 31.238,39.889 30.09,39.365 C28.559,40.03 26.799,40.362 24.856,40.362 C22.936,40.362 21.172,40.023 19.608,39.342 C18.421,39.887 17.407,40.232 16.595,40.355 C15.338,40.551 14.457,40.244 14.029,39.542 C13.759,39.094 13.569,38.304 14.208,37.065 L14.39,36.679 C14.535,36.359 14.697,36.01 15.028,35.479 C14.927,35.322 14.834,35.163 14.74,35.001 C13.339,32.526 13.471,29.466 15.17,25.098 C14.412,23.401 12.675,18.717 14.746,15.204 C14.838,15.049 14.932,14.896 15.032,14.743 C14.702,14.212 14.536,13.862 14.391,13.543 L14.206,13.153 C13.569,11.913 13.759,11.12 14.031,10.671 C14.457,9.972 15.339,9.66 16.594,9.859 C17.411,9.987 18.429,10.334 19.622,10.883 C21.184,10.197 22.943,9.853 24.856,9.853 C26.798,9.853 28.559,10.187 30.091,10.852 C31.238,10.331 32.251,9.993 33.112,9.859 C34.375,9.664 35.248,9.97 35.677,10.671 C35.948,11.12 36.14,11.913 35.496,13.157 L35.314,13.543 C35.169,13.861 35.007,14.21 34.675,14.74 C34.775,14.893 34.873,15.049 34.963,15.204 C36.868,18.447 35.619,22.693 34.619,25.094 C36.262,29.284 36.376,32.611 34.963,35.011 C34.873,35.168 34.775,35.322 34.675,35.469 C35.007,36.008 35.17,36.359 35.315,36.679 L35.499,37.069 C36.14,38.304 35.948,39.096 35.677,39.544 C35.334,40.102 34.671,40.414 33.809,40.414 Z" id="Fill-55" fill="#FFFFFE"></path>
        <polyline id="Fill-56" fill="#FFFFFE" points="0 1.033 11.654 1.033 8.543 5.879 8.543 44.099 33.864 44.099 39.77 39.948 34.799 49.176 0 49.176 2.949 44.099 2.949 5.879 0 1.033"></polyline>
        <polyline id="Fill-57" fill="#FFFFFE" points="49.725 49.176 38.071 49.176 41.182 44.336 41.182 6.116 15.858 6.116 9.955 10.262 14.926 1.033 49.725 1.033 46.776 6.116 46.776 44.336 49.725 49.176"></polyline>
    </g>
</svg>