<?xml version="1.0" encoding="UTF-8"?>
<svg width="53px" height="53px" viewBox="0 0 53 53" version="1.1" xmlns="http://www.w3.org/2000/svg" xmlns:xlink="http://www.w3.org/1999/xlink">
    <!-- Generator: Sketch 48 (47235) - http://www.bohemiancoding.com/sketch -->
    <title>MITLL_logo_white</title>
    <desc>Created with Sketch.</desc>
    <defs></defs>
    <g id="footer/large" stroke="none" stroke-width="1" fill="none" fill-rule="evenodd" transform="translate(-120.000000, -53.000000)">
        <g id="footer" fill="#FFFFFE">
            <g id="MITLL_logo_white" transform="translate(120.000000, 53.000000)">
                <path d="M33.5783571,11.8072222 C34.5252857,12.4118148 35.3680714,13.1616667 36.1009286,14.046963 C36.2417143,13.7878519 36.3381429,13.5719259 36.4384286,13.354037 C36.5059286,13.2028889 36.5734286,13.0537037 36.6525,12.8907778 C36.963,12.2822593 37.0517143,11.764037 36.8935714,11.502963 C36.7373571,11.2418889 36.2860714,11.2006667 36.0315,11.2006667 C35.8656429,11.2006667 35.6862857,11.2163704 35.4934286,11.2458148 C34.9360714,11.3380741 34.2938571,11.5245556 33.5783571,11.8072222 Z M16.9444286,11.2006667 C16.6898571,11.2006667 16.2366429,11.2418889 16.0785,11.5049259 C15.9222857,11.766 16.011,12.2822593 16.3157143,12.8888148 C16.3967143,13.0517407 16.4642143,13.2028889 16.5336429,13.3520741 C16.6339286,13.5758519 16.7342143,13.7917778 16.8788571,14.0607037 C17.6097857,13.1911111 18.4583571,12.4491111 19.4149286,11.8386296 C18.6647143,11.5324074 18.0167143,11.3341481 17.4786429,11.2458148 C17.2896429,11.2163704 17.1102857,11.2006667 16.9444286,11.2006667 Z M22.5141429,11.8523704 C23.8101429,12.559037 25.1948571,13.4207778 26.4908571,14.3257037 C27.8620714,13.354037 29.2043571,12.5040741 30.4502143,11.819 C28.0665,11.077 24.9653571,11.0573704 22.5141429,11.8523704 Z M27.6248571,15.1638889 C29.0365714,16.2768889 30.6527143,17.7981852 32.0914286,19.3685556 C32.9361429,18.4047407 33.6072857,17.597963 34.1299286,16.9168148 C34.6564286,16.2317407 35.0517857,15.688 35.3545714,15.2463333 C34.4597143,14.0685556 33.3565714,13.1400741 32.0721429,12.4805185 C30.7163571,13.1518519 29.1985714,14.0685556 27.6248571,15.1638889 Z M17.6232857,15.2541852 C17.9260714,15.6958519 18.3195,16.2356667 18.8440714,16.9168148 C19.3725,17.6058148 20.0513571,18.4224074 20.9076429,19.4019259 C22.3521429,17.808 23.9663571,16.2749259 25.3607143,15.1697778 C23.8737857,14.1549259 22.302,13.2166296 20.9095714,12.5217407 C19.6135714,13.1930741 18.5104286,14.1078148 17.6232857,15.2541852 Z M32.9824286,20.3735926 C34.0315714,21.5984815 35.2407857,23.1668889 36.1144286,24.7608148 C36.9379286,22.366 37.6013571,18.9975556 36.1414286,16.4358889 C35.8772143,16.8068889 35.559,17.2387407 35.1713571,17.7451852 C34.6101429,18.4734444 33.8927143,19.3371481 32.9843571,20.3696667 L32.9862857,20.3716296 L32.9824286,20.3735926 Z M16.8325714,16.4378519 C15.2955,19.133 16.1652857,22.6957778 16.9270714,24.7922222 C17.7872143,23.2022222 18.9848571,21.6338148 20.0224286,20.4108889 L20.0205,20.406963 C19.0986429,19.3567778 18.3696429,18.4832593 17.8045714,17.7451852 C17.4169286,17.2407037 17.0987143,16.8088519 16.8325714,16.4378519 Z M21.7967143,20.403037 C23.0059286,21.7476667 24.2614286,23.0883704 25.2662143,24.1621111 C25.7367857,24.6626667 26.1514286,25.1082593 26.4831429,25.4674815 L26.4889286,25.4596296 L26.4947143,25.4674815 C26.8264286,25.1062963 27.243,24.6587407 27.7155,24.1562222 C28.7260714,23.0765926 29.9892857,21.7221481 31.2042857,20.3696667 C29.6749286,18.6913333 27.9372857,17.0699259 26.4947143,15.9765556 C25.0617857,17.067963 23.3299286,18.7011481 21.7967143,20.403037 Z M27.3857143,26.4627037 C27.7174286,26.8238889 28.1475,27.2851852 28.6412143,27.8112593 C29.6170714,28.8535926 30.8378571,30.157 32.022,31.4741481 C33.6304286,29.5582963 34.8338571,27.7935926 35.4606429,26.4273704 C34.8338571,24.9767407 33.6767143,23.2454074 32.0895,21.3766667 C30.8976429,22.7016667 29.6614286,24.0227407 28.6720714,25.0807778 C28.1648571,25.6225556 27.7251429,26.0936667 27.3857143,26.4627037 Z M17.6078571,26.4116667 C18.3792857,28.0095185 19.521,29.7388889 20.9442857,31.480037 C22.1342143,30.1609259 23.3588571,28.8516296 24.3405,27.8053704 C24.8322857,27.2812593 25.2604286,26.8219259 25.5921429,26.4627037 C25.2527143,26.0956296 24.813,25.6264815 24.3096429,25.0866667 C23.3260714,24.0364815 22.1014286,22.7311111 20.9172857,21.413963 C19.3763571,23.2493333 18.2211429,24.9944074 17.6078571,26.4116667 Z M16.9849286,28.0821481 C15.7332857,31.7784074 15.6966429,34.4028889 16.8345,36.4836296 C17.0987143,36.1126296 17.4169286,35.6827407 17.8026429,35.1782593 C18.3754286,34.4342963 19.1121429,33.5529259 20.0475,32.489 L20.0455714,32.489 L20.0494286,32.4850741 C18.8151429,30.9912593 17.7775714,29.4974444 16.9849286,28.0821481 Z M32.9168571,32.4791852 C33.8560714,33.547037 34.5947143,34.4323333 35.1694286,35.1782593 C35.559,35.6847037 35.8772143,36.1165556 36.1414286,36.4875556 C37.2908571,34.4715926 37.2696429,31.6527778 36.0816429,28.0939259 C35.3333571,29.3992963 34.2495,30.897037 32.9168571,32.4752593 L32.9187857,32.4791852 L32.9168571,32.4791852 Z M21.8140714,32.5047037 C23.3202857,34.2164074 25.0155,35.828 26.4908571,36.9488519 C27.8389286,35.9163333 29.5553571,34.2713704 31.1445,32.489 C29.9352857,31.1424074 28.6836429,29.8056296 27.6846429,28.7377778 C27.2256429,28.247037 26.8206429,27.8132222 26.4966429,27.4598889 L26.4889286,27.4697037 L26.4812143,27.4598889 C26.1572143,27.8112593 25.7541429,28.2431111 25.2970714,28.7318889 C24.2922857,29.8056296 23.0290714,31.1522222 21.8140714,32.5047037 Z M17.6117143,37.6869259 C18.4795714,38.8274074 19.5788571,39.7441111 20.8922143,40.4154444 C22.2865714,39.7185926 23.8660714,38.7783333 25.3568571,37.7575926 C23.9316429,36.6288889 22.3463571,35.1115185 20.9230714,33.5058148 C20.0590714,34.4912222 19.3744286,35.3137037 18.8421429,36.0066296 C18.3137143,36.6956296 17.9164286,37.2432963 17.6117143,37.6869259 Z M27.6190714,37.7595556 C29.2005,38.8588148 30.7221429,39.7774815 32.0702143,40.4448889 C33.3565714,39.7872963 34.4597143,38.8588148 35.3545714,37.6790741 C35.0517857,37.2354444 34.6564286,36.6917037 34.1299286,36.0066296 C33.5937857,35.3097778 32.9052857,34.4814074 32.0335714,33.4901111 C30.5292857,35.1704074 28.9536429,36.6936667 27.6190714,37.7595556 Z M22.5064286,41.0808889 C24.9557143,41.8641111 28.0626429,41.8484074 30.4482857,41.1064074 C29.2062857,40.4232963 27.864,39.5733333 26.4889286,38.5997037 C25.1890714,39.5105185 23.8043571,40.3702963 22.5064286,41.0808889 Z M16.8672857,38.8862963 C16.7284286,39.1454074 16.632,39.3593704 16.5336429,39.5772593 C16.4661429,39.7264444 16.3967143,39.8756296 16.3176429,40.0385556 C16.011,40.6451111 15.9222857,41.1594074 16.0785,41.4185185 C16.2366429,41.6815556 16.6898571,41.7227778 16.9444286,41.7227778 C17.1102857,41.7227778 17.2896429,41.7070741 17.4825,41.6756667 C18.0109286,41.5912593 18.6512143,41.3988889 19.3898571,41.0985556 C18.4294286,40.490037 17.5866429,39.751963 16.8672857,38.8862963 Z M33.5783571,41.1201481 C34.2938571,41.4008519 34.9360714,41.5873333 35.4953571,41.6756667 C35.6862857,41.7070741 35.8656429,41.7227778 36.0315,41.7227778 C36.2860714,41.7227778 36.7373571,41.6815556 36.8955,41.4204815 C37.0517143,41.1613704 36.9610714,40.6470741 36.6563571,40.0444444 C36.5734286,39.8756296 36.5059286,39.7264444 36.4384286,39.5752963 C36.3381429,39.3554444 36.2417143,39.1395185 36.1009286,38.8784444 C35.3680714,39.7637407 34.5252857,40.5135926 33.5783571,41.1201481 Z M36.0315,43.0654444 C35.8039286,43.0654444 35.5570714,43.0458148 35.2909286,43.0026296 C34.3729286,42.8573704 33.291,42.4961852 32.0682857,41.9288889 C30.4367143,42.6492963 28.5621429,43.0104815 26.4889286,43.0104815 C24.4427143,43.0104815 22.5642857,42.6394815 20.8960714,41.9014074 C19.6309286,42.4961852 18.5509286,42.8652222 17.6869286,43.0026296 C16.3446429,43.2126667 15.4073571,42.8809259 14.9502857,42.1173333 C14.6629286,41.6344444 14.4604286,40.7766296 15.1412143,39.430037 L15.3340714,39.0158519 C15.4902857,38.6684074 15.6638571,38.2856296 16.0148571,37.7104815 C15.9087857,37.5397037 15.8065714,37.366963 15.7101429,37.1902963 C14.2155,34.5069259 14.3562857,31.1875556 16.1672143,26.4509259 C15.3572143,24.6077037 13.5057857,19.5275556 15.7159286,15.7213704 C15.8123571,15.5525556 15.9145714,15.3876667 16.0206429,15.2227778 C15.6677143,14.6456667 15.4922143,14.2628889 15.336,13.9154444 L15.1392857,13.4973333 C14.4604286,12.1468148 14.6629286,11.287037 14.9522143,10.8041481 C15.4092857,10.0425185 16.3465714,9.70488889 17.685,9.92081481 C18.5567143,10.0621481 19.6405714,10.4351111 20.9115,11.0338148 C22.5777857,10.2898519 24.4523571,9.91296296 26.4889286,9.91296296 C28.5602143,9.91296296 30.4367143,10.2761111 32.0682857,10.9965185 C33.2890714,10.4311852 34.371,10.07 35.2870714,9.92081481 C36.6332143,9.71077778 37.5647143,10.0405556 38.0217857,10.8041481 C38.3110714,11.287037 38.5135714,12.1468148 37.8289286,13.5012593 L37.6360714,13.9154444 C37.4798571,14.2609259 37.3062857,14.6437037 36.9552857,15.2188519 C37.0594286,15.3837407 37.1635714,15.5525556 37.26,15.7213704 C39.2927143,19.2350741 37.9600714,23.8460741 36.8935714,26.445037 C38.6466429,30.9932222 38.7662143,34.6031111 37.26,37.2020741 C37.1635714,37.3728519 37.0594286,37.5397037 36.9552857,37.7045926 C37.3062857,38.2836667 37.4817857,38.6684074 37.638,39.0158519 L37.8327857,39.4359259 C38.5135714,40.7766296 38.3110714,41.6364074 38.0217857,42.1192963 C37.6572857,42.7297778 36.9495,43.0654444 36.0315,43.0654444 L36.0315,43.0654444 Z" id="Fill-52"></path>
                <polyline id="Fill-53" points="0 0.35137037 12.42 0.35137037 9.10478571 5.60622222 9.10478571 47.064 36.0893571 47.064 42.3842143 42.5629259 37.0845 52.5720741 0 52.5720741 3.14164286 47.064 3.14164286 5.60622222 0 0.35137037"></polyline>
                <polyline id="Fill-54" points="52.9932857 52.5720741 40.5732857 52.5720741 43.8885 47.3152593 43.8885 5.85944444 16.902 5.85944444 10.6090714 10.3605185 15.9068571 0.35137037 52.9932857 0.35137037 49.8497143 5.85944444 49.8497143 47.3152593 52.9932857 52.5720741"></polyline>
            </g>
        </g>
    </g>
</svg>