<?xml version="1.0" encoding="UTF-8"?>
<svg width="1084px" height="279px" viewBox="0 0 1084 279" version="1.1" xmlns="http://www.w3.org/2000/svg" xmlns:xlink="http://www.w3.org/1999/xlink">
    <!-- Generator: Sketch 61.2 (89653) - https://sketch.com -->
    <title>Limitless_White_Black_SVG</title>
    <desc>Created with Sketch.</desc>
    <g id="Page-1" stroke="none" stroke-width="1" fill="none" fill-rule="evenodd">
        <g id="White-Text" transform="translate(-953.000000, -512.000000)" fill="#FFFFFF">
            <g id="Limitless_White_Black" transform="translate(885.000000, 512.000000)">
                <text id="li-less" font-family="Avenir-Black, Avenir" font-size="270" font-weight="700">
                    <tspan x="54.9" y="270">li     less</tspan>
                </text>
                <g id="MIT-Logo" transform="translate(224.000000, 83.000000)" fill-rule="nonzero">
                    <polygon id="Path" points="262 40 363 40 363 0 262 0"></polygon>
                    <polygon id="Path" points="66 131 106 131 106 0 66 0"></polygon>
                    <polygon id="Path" points="131 192 171 192 171 1 131 1"></polygon>
                    <polygon id="Path" points="0 192 40 192 40 1 0 1"></polygon>
                    <polygon id="Path" points="262 192 302 192 302 66 262 66"></polygon>
                    <polygon id="Path" points="196 40 236 40 236 0 196 0"></polygon>
                    <polygon id="Path" points="198 191 238 191 238 65 198 65"></polygon>
                </g>
                <g id="infinite-sign" transform="translate(952.000000, 0.000000)" fill-rule="nonzero">
                    <path d="M45.4070762,91.4572864 C57.5359722,91.4572864 68.9382909,86.7007159 77.5145109,78.0636966 L99.4976545,55.9247083 L121.480798,78.0636966 C130.057018,86.7007159 141.459671,91.4572864 153.588233,91.4572864 C165.717129,91.4572864 177.119448,86.7003793 185.695668,78.0636966 C194.271888,69.4266773 198.994975,57.9431878 198.994975,45.7286432 C198.994975,33.513762 194.271888,22.0306091 185.695668,13.3935898 C177.119448,4.75657053 165.717129,0 153.588233,0 C141.459671,0 130.057018,4.75657053 121.480798,13.3935898 L99.4976545,35.5329148 L77.5145109,13.3939264 C68.9382909,4.75690712 57.535638,0 45.4070762,0 C33.2781802,0 21.8758615,4.75690712 13.2996415,13.3939264 C4.72308723,22.0306091 0,33.5140986 0,45.7289798 C0,57.9431878 4.72308723,69.4266773 13.2993073,78.0636966 C21.8758615,86.7007159 33.2781802,91.4572864 45.4070762,91.4572864 Z M131.605089,23.5893183 C137.476864,17.6759169 145.284396,14.4188172 153.588233,14.4188172 C161.892738,14.4188172 169.699602,17.6755804 175.571377,23.5893183 C181.443485,29.5027196 184.677657,37.3656013 184.677657,45.7286432 C184.677657,54.0916851 181.443485,61.9538937 175.571377,67.8676316 C169.699602,73.7810329 161.892404,77.0381326 153.588233,77.0381326 C145.284062,77.0381326 137.476864,73.7810329 131.605089,67.8676316 L109.621611,45.7286432 L131.605089,23.5893183 Z M23.4235983,23.5893183 C29.295373,17.6759169 37.1025707,14.4188172 45.406742,14.4188172 C53.7109133,14.4188172 61.5181109,17.6755804 67.3898856,23.5893183 L89.3733635,45.7286432 L67.3895514,67.8679682 C61.5177767,73.7813695 53.710579,77.0381326 45.4064078,77.0381326 C37.1022365,77.0381326 29.2947046,73.7813695 23.4229299,67.8679682 C17.5511553,61.9542302 14.3173177,54.0916851 14.3173177,45.7289798 C14.3173177,37.3656013 17.5514895,29.5030562 23.4235983,23.5893183 Z" id="Shape"></path>
                    <path d="M154.272857,91.4572864 C142.058563,91.4572864 130.575303,86.7007014 121.938714,78.0637972 L100,56.1242833 L78.0616214,78.0637972 C69.4250322,86.7010367 57.9417722,91.4572864 45.7274788,91.4572864 C33.5131854,91.4572864 22.0302608,86.7007014 13.3933362,78.0637972 C4.75641163,69.4265577 0,57.9432143 0,45.7288109 C0,33.5140721 4.75641163,22.0303934 13.3930009,13.3934892 C22.0299254,4.75658507 33.5131854,0 45.7271435,0 C57.9414368,0 69.4243615,4.75658507 78.0612861,13.3934892 L100,35.3330031 L121.938714,13.3934892 C130.575638,4.75658507 142.058563,0 154.272857,0 C166.48715,0 177.97041,4.75658507 186.606999,13.3934892 C195.243588,22.0303934 200,33.5140721 200,45.7288109 C200,57.9435497 195.243253,69.4272284 186.606999,78.0641326 C177.970075,86.7010367 166.486815,91.4572864 154.272857,91.4572864 Z M100,55.6501003 L122.175797,77.8267057 C130.749007,86.400229 142.148098,91.1219378 154.272857,91.1219378 C166.39728,91.1219378 177.796035,86.400229 186.369916,77.8267057 C194.943127,69.2531825 199.664664,57.8536762 199.664664,45.7284755 C199.664664,33.6032749 194.943127,22.204104 186.369916,13.6302454 C177.796706,5.05638675 166.397615,0.335013289 154.272857,0.335013289 C142.148433,0.335013289 130.749678,5.0567221 122.175797,13.6302454 L100,35.8068508 L77.8242032,13.6302454 C69.2509926,5.0567221 57.851902,0.335013289 45.7271435,0.335013289 C33.6027202,0.335013289 22.2036297,5.0567221 13.6300837,13.6302454 C5.05687306,22.204104 0.335336409,33.6036102 0.335336409,45.7288109 C0.335336409,57.8533409 5.05687306,69.2525118 13.6300837,77.8267057 C22.2036297,86.400229 33.6027202,91.1219378 45.7271435,91.1219378 C57.8515667,91.1219378 69.2506573,86.400229 77.8242032,77.8267057 L100,55.6501003 Z M154.272857,77.0909508 C145.896153,77.0909508 138.020442,73.8283439 132.09706,67.9047456 L109.920928,45.7281402 L132.09706,23.5515348 C138.020442,17.6279365 145.895818,14.3656649 154.272857,14.3656649 C162.649895,14.3656649 170.525271,17.6279365 176.448653,23.5515348 C182.372371,29.4751331 185.634859,37.3507959 185.634859,45.7281402 C185.634859,54.1048138 182.372371,61.9808119 176.448653,67.9047456 C170.525271,73.8286793 162.64956,77.0909508 154.272857,77.0909508 Z M110.395093,45.7284755 L132.334143,67.6679894 C138.194482,73.5285422 145.985688,76.7559375 154.272857,76.7559375 C162.560025,76.7559375 170.351231,73.5285422 176.21157,67.6679894 C182.07191,61.8071013 185.299522,54.0159464 185.299522,45.7284755 C185.299522,37.4406693 182.07191,29.6491791 176.21157,23.7889616 C170.351231,17.9287442 162.560025,14.7013489 154.272857,14.7013489 C145.985688,14.7013489 138.194482,17.9287442 132.334143,23.7889616 L110.395093,45.7284755 Z M45.7271435,77.0909508 C37.3501046,77.0909508 29.4743937,73.8286793 23.5513467,67.9050809 C17.6282997,61.9814826 14.3661471,54.1058199 14.3661471,45.7284755 C14.3661471,37.3507959 17.6282997,29.4747978 23.551682,23.5515348 C29.4750644,17.6279365 37.35044,14.3656649 45.7274788,14.3656649 C54.1045177,14.3656649 61.9798932,17.6279365 67.9032756,23.5515348 L90.0794077,45.7281402 L67.9032756,67.9050809 C61.9798932,73.8290146 54.1041823,77.0909508 45.7271435,77.0909508 Z M45.7274788,14.7013489 C37.4403101,14.7013489 29.6487686,17.9287442 23.7887649,23.7889616 C17.9287611,29.6491791 14.7014835,37.4406693 14.7014835,45.7288109 C14.7014835,54.0162818 17.9287611,61.807772 23.7884296,67.6683248 C29.6484333,73.5285422 37.4396394,76.7559375 45.7271435,76.7559375 C54.0146475,76.7559375 61.8058536,73.5285422 67.6658574,67.6683248 L89.6049066,45.7284755 L67.6658574,23.7889616 C61.806189,17.9287442 54.0146475,14.7013489 45.7274788,14.7013489 Z" id="Shape"></path>
                </g>
            </g>
        </g>
    </g>
</svg>